<?xml version="1.0" encoding="UTF-8" standalone="no"?>
<!-- Created with Inkscape (http://www.inkscape.org/) -->

<svg
   width="210mm"
   height="297mm"
   viewBox="0 0 210 297"
   version="1.1"
   id="svg1"
   xml:space="preserve"
   inkscape:version="1.4.2 (f4327f4, 2025-05-13)"
   sodipodi:docname="Geschool_Logo_25_Septembre_2025.svg"
   xmlns:inkscape="http://www.inkscape.org/namespaces/inkscape"
   xmlns:sodipodi="http://sodipodi.sourceforge.net/DTD/sodipodi-0.dtd"
   xmlns="http://www.w3.org/2000/svg"
   xmlns:svg="http://www.w3.org/2000/svg"><sodipodi:namedview
     id="namedview1"
     pagecolor="#ffffff"
     bordercolor="#000000"
     borderopacity="0.25"
     inkscape:showpageshadow="2"
     inkscape:pageopacity="0.0"
     inkscape:pagecheckerboard="0"
     inkscape:deskcolor="#d1d1d1"
     inkscape:document-units="mm"
     inkscape:zoom="1.4142136"
     inkscape:cx="194.45436"
     inkscape:cy="473.40799"
     inkscape:window-width="1920"
     inkscape:window-height="1009"
     inkscape:window-x="-8"
     inkscape:window-y="-8"
     inkscape:window-maximized="1"
     inkscape:current-layer="layer1" /><defs
     id="defs1" /><g
     inkscape:label="Calque 1"
     inkscape:groupmode="layer"
     id="layer1"><path
       style="fill:#0089ad;stroke:#0089ad;stroke-width:1.06835;stroke-dasharray:none;stroke-opacity:1"
       d="m 58.01568,166.06638 c -2.51429,-0.70322 -3.948069,-1.54003 -5.866098,-3.4237 -2.576645,-2.53049 -3.990552,-5.38601 -4.433357,-8.9536 -0.251817,-2.02883 -0.270677,-71.200734 -0.0201,-73.687354 0.183985,-1.825734 0.383871,-2.463734 1.483293,-4.734436 0.677655,-1.399601 1.030651,-1.854742 1.266383,-1.632795 0.08662,0.08163 0.09122,0.02804 0.01017,-0.118864 -0.226077,-0.410041 2.070623,-2.776067 3.815767,-3.930961 1.81556,-1.20149 3.115893,-1.705469 5.517292,-2.138394 1.574821,-0.283918 6.3911,-0.316119 39.568095,-0.264616 l 37.775045,0.05857 1.54677,0.460157 c 4.866,1.447582 8.60003,5.13298 10.22664,10.093414 l 0.55382,1.688908 0.0648,35.466991 c 0.068,37.24466 0.0465,38.324 -0.81894,41.27262 -1.31987,4.49653 -4.31227,7.73986 -8.74384,9.47713 -2.22915,0.87387 -1.93607,0.86789 -42.001074,0.85731 l -38.226936,-0.009 z m 22.835677,-9.63616 c 0.611311,-0.58145 1.361558,-1.17427 1.667214,-1.31736 0.305655,-0.14317 0.555733,-0.33199 0.555733,-0.41975 0,-0.0877 0.181881,-0.15958 0.404177,-0.15958 0.222296,0 0.404161,-0.0801 0.404161,-0.17792 0,-0.16317 1.355053,-0.92136 2.323995,-1.30034 0.222296,-0.0869 0.658529,-0.26491 0.969418,-0.39547 0.310874,-0.13055 0.782934,-0.2374 1.049025,-0.2374 0.266077,0 0.539974,-0.095 0.608665,-0.21112 0.06863,-0.11606 0.506016,-0.21525 0.971841,-0.2203 0.465808,-0.005 1.243151,-0.0891 1.727427,-0.18689 0.877088,-0.17702 5.409103,0.18946 7.303973,0.59064 1.508254,0.31931 2.904114,0.64339 3.375124,0.78358 1.03675,0.30859 1.69744,-2.48221 0.92186,-3.89396 -0.19305,-0.35139 -0.48861,-0.69248 -0.6568,-0.75796 -1.03787,-0.40412 -1.61023,-0.59534 -2.32662,-0.77733 -1.725575,-0.43837 -2.658115,-0.6354 -3.435465,-0.72593 -0.44459,-0.0517 -1.58813,-0.19951 -2.541194,-0.32831 -1.736189,-0.23466 -2.838594,-0.14504 -5.845356,0.47565 -1.250762,0.25817 -1.529548,0.35817 -2.862204,1.0267 -0.527458,0.26459 -1.052823,0.40143 -1.19321,0.31079 -0.161814,-0.10453 -0.199584,-0.0752 -0.106461,0.0823 0.08657,0.14628 -0.04261,0.31934 -0.322431,0.43186 -0.611401,0.24586 -2.527332,1.63113 -3.296045,2.38313 -0.333452,0.3262 -0.718923,0.59353 -0.856619,0.59406 -0.137711,5.4e-4 -0.818236,-0.45028 -1.512308,-1.00181 -1.393078,-1.10697 -1.947749,-1.4589 -3.592609,-2.27947 -0.611311,-0.30496 -1.269377,-0.64122 -1.462382,-0.74724 -0.19299,-0.10608 -0.528639,-0.19276 -0.745882,-0.19276 -0.217242,0 -0.444981,-0.0844 -0.506091,-0.18779 -0.202081,-0.34159 -4.433631,-0.94785 -6.581581,-0.94296 -2.655955,0.006 -7.857042,0.96734 -9.933182,1.83589 -0.797636,0.33368 -1.181533,1.18024 -1.181533,2.60548 0,1.49111 0.418251,2.29111 1.08459,2.07454 0.431199,-0.1402 1.192914,-0.34196 2.80556,-0.74331 1.212149,-0.30168 4.709992,-0.71119 5.911008,-0.69203 1.818958,0.029 5.933274,0.58188 6.668823,0.89609 0.222297,0.095 0.813392,0.29562 1.313563,0.44587 0.500155,0.15034 1.000325,0.33517 1.111465,0.41092 0.111096,0.0757 0.52037,0.26573 0.909385,0.42224 0.389015,0.15648 1.087439,0.55241 1.552052,0.87982 0.464613,0.32741 0.901909,0.5953 0.971766,0.5953 0.108255,0 1.620442,1.1627 1.922077,1.47781 0.202468,0.2115 0.914603,0.6088 1.111465,0.62007 0.111096,0.006 0.702251,-0.46416 1.313562,-1.04563 z m 31.020153,-4.65947 c -0.30305,-0.14971 -0.20195,-0.17397 0.40418,-0.0967 0.9554,0.12182 1.764,-0.0583 1.5891,-0.35385 -0.0755,-0.12759 0.0375,-0.15616 0.2884,-0.0729 0.22685,0.0752 0.46699,0.0445 0.53362,-0.0681 0.0667,-0.11263 0.12126,-6.1728 0.12126,-13.46704 1.5e-4,-12.43311 -0.0221,-13.27933 -0.35676,-13.53555 -0.1963,-0.15034 -0.56915,-0.21776 -0.82854,-0.14987 -0.32485,0.0851 -0.42705,0.0481 -0.32837,-0.11871 0.10257,-0.17342 -0.0504,-0.20214 -0.53881,-0.10126 -0.37512,0.0776 -0.57715,0.0639 -0.44894,-0.0302 0.12814,-0.0941 -0.80594,-0.17803 -2.07584,-0.18646 -1.27221,-0.008 -2.19348,0.0625 -2.05185,0.15803 0.14205,0.0958 -0.0508,0.11154 -0.43115,0.0352 -0.52628,-0.10562 -0.65109,-0.0756 -0.53044,0.12852 0.11738,0.19853 0.0416,0.22815 -0.29701,0.1159 -0.34075,-0.11294 -0.41479,-0.0832 -0.29528,0.11887 0.11349,0.19168 0.0624,0.23064 -0.17678,0.13475 -0.18494,-0.0742 -0.33628,-0.0372 -0.33628,0.0821 0,0.11933 -0.0682,0.17289 -0.15155,0.11902 -0.0833,-0.0539 -0.12844,5.85006 -0.10003,13.1198 0.0387,9.9408 0.11154,13.2724 0.29338,13.43834 0.18194,0.16597 0.19423,0.13974 0.0495,-0.10593 -0.15388,-0.26128 -0.13098,-0.25806 0.11483,0.0162 0.16893,0.18854 0.43168,0.29945 0.58387,0.24647 0.17888,-0.0623 0.22209,-0.005 0.12231,0.16471 -0.11662,0.19703 0.0135,0.22651 0.5276,0.12011 0.52303,-0.10812 0.61138,-0.0868 0.37893,0.0918 -0.22978,0.17637 -0.0586,0.20623 0.70731,0.12339 0.7236,-0.0782 0.86701,-0.0567 0.50521,0.0759 -0.36025,0.13195 0.0167,0.18677 1.31356,0.1912 1.28995,0.005 1.70126,-0.0519 1.41459,-0.19355 z m 15.71673,-0.17222 c 0.73944,-0.33112 0.92087,-0.52576 1.03323,-1.10835 0.0749,-0.38868 0.1259,-4.31673 0.11334,-8.72899 -0.012,-4.41227 -0.0159,-8.97231 -0.007,-10.13343 0.0218,-2.94633 -0.006,-7.72127 -0.0567,-9.60565 -0.0232,-0.87084 -0.0613,-2.50264 -0.0848,-3.62624 l -0.0426,-2.04288 -0.63731,-0.33215 c -0.35051,-0.18267 -0.99245,-0.33211 -1.42653,-0.33211 -0.47469,0 -0.73943,-0.0841 -0.66431,-0.21114 0.08,-0.13506 -0.57049,-0.21112 -1.80686,-0.21112 -1.1531,0 -1.93173,0.0851 -1.93173,0.21112 0,0.11606 -0.40923,0.21114 -0.90939,0.21114 -0.50017,0 -0.90938,0.0724 -0.90938,0.16103 0,0.0886 -0.20462,0.25483 -0.4547,0.36946 l -0.45469,0.20838 -0.0517,17.28711 c -0.0487,16.27494 -0.0309,17.30357 0.30313,17.56845 0.19515,0.15469 0.55944,0.28438 0.80951,0.28807 0.2501,0.003 0.4547,0.10173 0.4547,0.21782 0,0.13102 1.10589,0.21112 2.91349,0.21112 2.41471,0 3.06704,-0.0687 3.81042,-0.40164 z m 13.73572,0.0863 c 0.64916,-0.13101 0.78654,-0.26158 0.96996,-0.92145 0.14579,-0.52429 0.19441,-7.53733 0.1531,-22.0533 -0.0598,-21.02679 -0.0655,-21.28754 -0.46473,-21.53352 -0.71924,-0.44313 -1.7707,-0.6197 -4.24193,-0.71236 -2.33097,-0.0874 -3.61858,0.0837 -4.70037,0.62415 l -0.4547,0.22721 v 21.90763 c 0,14.61178 0.0683,21.95179 0.20538,22.04023 0.11304,0.0729 0.16119,0.20732 0.10721,0.29862 -0.054,0.0913 0.11828,0.12276 0.38287,0.07 0.2646,-0.0528 0.64833,0.008 0.85275,0.13522 0.40323,0.25092 5.84876,0.18855 7.19051,-0.0824 z m -26.16864,-20.30578 c -0.0311,-3.5788 -0.0565,-0.71186 -0.0565,6.37098 -1e-5,7.08285 0.0254,10.01096 0.0565,6.50693 0.0311,-3.50405 0.0311,-9.2991 6e-5,-12.87791 z m -32.414782,15.15663 c 0.906036,-0.45099 2.011072,-0.93916 2.455665,-1.08482 0.444592,-0.14566 0.990217,-0.3367 1.212513,-0.42458 0.516693,-0.20423 2.172259,-0.53149 4.303443,-0.85067 1.684888,-0.25236 4.418677,-0.0874 7.328656,0.44222 0.61798,0.11248 1.36824,0.2045 1.66721,0.2045 h 0.543575 v -13.05222 -13.05223 l -0.454695,-0.43691 c -1.33352,-1.28141 -8.177095,-2.79065 -11.38694,-2.51122 -2.673654,0.23276 -3.609146,0.3734 -3.809911,0.57276 -0.105564,0.10484 -0.398555,0.19065 -0.651025,0.19065 -0.553744,0 -2.638397,0.93802 -3.141318,1.41351 -0.339313,0.32079 -0.360515,1.19557 -0.360515,14.87493 0,13.17619 0.0302,14.53409 0.323015,14.53409 0.177663,0 1.064306,-0.36901 1.970327,-0.82001 z m -5.116161,-15.25224 -0.016,-15.22343 -0.449871,-0.5688 c -0.509725,-0.6445 -2.438948,-2.33585 -2.664324,-2.33585 -0.08149,0 -0.389568,-0.17344 -0.684592,-0.38543 -0.665572,-0.47826 -3.274378,-1.60832 -4.426561,-1.91749 -0.472388,-0.12681 -1.225611,-0.34167 -1.673854,-0.47764 -0.471786,-0.14316 -2.292479,-0.25422 -4.323556,-0.2639 -3.179764,-0.0156 -3.548446,0.021 -3.934031,0.38549 l -0.425456,0.40218 v 16.98405 16.98405 l 0.757821,-0.1103 c 0.416802,-0.0606 1.530799,-0.22852 2.47555,-0.37298 2.583006,-0.39494 5.762895,-0.25478 8.891773,0.39197 1.420426,0.29361 3.435446,0.96774 3.435446,1.14933 0,0.0904 0.166479,0.16433 0.369935,0.16433 0.203456,0 0.814842,0.23531 1.358643,0.52292 0.844357,0.44656 1.013289,0.47707 1.156936,0.20894 0.09256,-0.17271 0.160991,-7.16454 0.152169,-15.53742 z m 33.085153,-7.92906 c -0.19451,-0.0531 -0.51279,-0.0531 -0.7073,0 -0.1945,0.0531 -0.0354,0.0966 0.35364,0.0966 0.38903,0 0.54818,-0.0435 0.35366,-0.0966 z M 99.445985,113.7887 c 0.22079,-0.11606 0.582085,-0.30613 0.802875,-0.42222 0.22079,-0.11606 0.5403,-0.21112 0.71004,-0.21112 0.16974,0 0.46653,-0.084 0.65952,-0.18649 0.193,-0.10251 0.57825,-0.27986 0.85611,-0.39397 0.27789,-0.11419 0.73257,-0.30562 1.01043,-0.42556 1.32023,-0.56981 1.81138,-0.71257 2.0101,-0.58428 0.11857,0.0766 0.27026,-0.009 0.33695,-0.19078 0.0667,-0.18153 0.33885,-0.33004 0.60482,-0.33004 0.26598,0 0.48359,-0.095 0.48359,-0.21114 0,-0.11606 0.22735,-0.2111 0.50523,-0.2111 0.27785,0 0.5052,-0.095 0.5052,-0.2111 0,-0.11606 0.22199,-0.21112 0.49328,-0.21112 0.27133,0 0.5495,-0.095 0.61819,-0.21111 0.0688,-0.11606 0.34688,-0.21112 0.61819,-0.21112 0.27129,0 0.49328,-0.10749 0.49328,-0.23874 0,-0.15531 0.26462,-0.19898 0.75781,-0.12494 0.41681,0.0626 0.64416,0.0671 0.50524,0.009 -0.43576,-0.17907 -0.2753,-0.49084 0.25259,-0.49084 0.27787,0 0.50522,-0.095 0.50522,-0.21112 0,-0.11606 0.1765,-0.21112 0.39223,-0.21112 0.21575,0 0.44847,-0.095 0.51716,-0.21111 0.0686,-0.11606 0.34688,-0.21112 0.61817,-0.21112 0.27133,0 0.49331,-0.095 0.49331,-0.2111 0,-0.11606 0.27279,-0.21112 0.60626,-0.21112 0.33342,0 0.60625,-0.095 0.60625,-0.21112 0,-0.11606 0.27281,-0.2111 0.60626,-0.2111 0.33344,0 0.60626,-0.095 0.60626,-0.21112 0,-0.11606 0.2046,-0.21427 0.45468,-0.21813 0.77411,-0.0125 1.30477,-0.66693 1.45966,-1.80157 0.29651,-2.17242 0.33831,-7.532891 0.0662,-8.499441 -0.36379,-1.29247 -0.54787,-1.3283 -2.23048,-0.43411 -0.19301,0.1025 -0.52866,0.18649 -0.7459,0.18649 -0.21724,0 -0.45119,0.095 -0.51988,0.21112 -0.0686,0.11605 -0.34151,0.2111 -0.60625,0.2111 -0.26476,0 -0.53757,0.095 -0.60627,0.21112 -0.0688,0.11606 -0.30141,0.21109 -0.51713,0.21109 -0.21576,0 -0.39226,0.095 -0.39226,0.21113 0,0.11606 -0.1765,0.21112 -0.39224,0.21112 -0.21575,0 -0.44845,0.095 -0.51715,0.2111 -0.0688,0.11606 -0.30265,0.21112 -0.51989,0.21112 -0.38152,0 -0.57822,0.0762 -1.54874,0.60037 -0.24859,0.13428 -0.63507,0.24408 -0.85885,0.24408 -0.22382,0 -0.40694,0.095 -0.40694,0.21112 0,0.11606 -0.17146,0.2111 -0.38106,0.2111 -0.20957,0 -0.63503,0.13772 -0.94541,0.30587 -0.31041,0.16823 -0.65312,0.24854 -0.76164,0.1785 -0.1093,-0.0706 -0.13308,-0.0187 -0.0531,0.11637 0.0945,0.15976 -0.0323,0.243741 -0.36807,0.243741 -0.28176,0 -0.80999,0.18964 -1.17393,0.42143 -0.36391,0.23179 -0.86628,0.4218 -1.11636,0.42222 -0.25008,4.4e-4 -0.45468,0.0958 -0.45468,0.21192 0,0.11606 -0.17652,0.2111 -0.39225,0.2111 -0.21575,0 -0.44845,0.095 -0.51714,0.21112 -0.0686,0.11606 -0.39235,0.2111 -0.71924,0.2111 -0.32687,0 -0.59432,0.095 -0.59432,0.21112 0,0.11606 -0.22735,0.21112 -0.50521,0.21112 -0.27787,0 -0.50522,0.095 -0.50522,0.21111 0,0.11606 -0.278184,0.21112 -0.618184,0.21112 -0.34,0 -0.56841,0.0841 -0.50757,0.18697 0.14922,0.25223 -0.64237,0.39241 -1.57421,0.27876 -0.54637,-0.0667 -0.73015,-0.17577 -0.65241,-0.38742 0.081,-0.22078 -0.0135,-0.26256 -0.38011,-0.16661 -0.58255,0.15282 -1.09539,-0.0872 -0.7134,-0.33393 0.17524,-0.1131 0.1814,-0.19956 0.0215,-0.30275 -0.12306,-0.0794 -0.22367,-0.0438 -0.22367,0.0791 0,0.12291 -0.19301,0.22358 -0.42891,0.22358 -0.37619,0 -0.39482,-0.043 -0.15157,-0.3498 0.25221,-0.31806 0.21017,-0.33663 -0.463644,-0.20484 -0.558693,0.10921 -0.920644,0.0396 -1.471248,-0.28356 -0.401664,-0.23565 -0.904033,-0.4285 -1.116385,-0.4285 -0.212353,0 -0.44229,-0.095 -0.510981,-0.2111 -0.06863,-0.11606 -0.301409,-0.21112 -0.517141,-0.21112 -0.215747,0 -0.392259,-0.1293 -0.392259,-0.28738 0,-0.18895 -0.164939,-0.254461 -0.481525,-0.19124 -0.264835,0.0528 -0.543023,-0.008 -0.618174,-0.134911 -0.07521,-0.12712 -0.358646,-0.231 -0.629956,-0.231 -0.271295,0 -0.493277,-0.095 -0.493277,-0.2111 0,-0.11606 -0.184736,-0.21112 -0.410516,-0.21112 -0.22578,0 -0.459007,-0.13195 -0.518263,-0.29334 -0.05936,-0.16172 -0.272999,-0.24818 -0.476067,-0.19272 -0.202574,0.0553 -0.429415,-0.003 -0.504087,-0.12884 -0.07461,-0.12618 -0.31352,-0.2295 -0.530763,-0.2295 -0.217242,0 -0.552907,-0.084 -0.745896,-0.18649 -0.193005,-0.10251 -0.623722,-0.30364 -0.957173,-0.44685 -0.333437,-0.14317 -0.764154,-0.34429 -0.957158,-0.44685 -0.193005,-0.10251 -0.534022,-0.18649 -0.757829,-0.18649 -0.223791,0 -0.406912,-0.12931 -0.406912,-0.2874 0,-0.1927 -0.166435,-0.25414 -0.505209,-0.1865 -0.29492,0.0589 -0.505209,0.003 -0.505209,-0.13491 0,-0.12961 -0.22735,-0.23572 -0.505224,-0.23572 -0.277859,0 -0.505209,-0.095 -0.505209,-0.21112 0,-0.11606 -0.261681,-0.2111 -0.581511,-0.2111 -0.31983,0 -0.696629,-0.14488 -0.837315,-0.32199 -0.468187,-0.58934 -0.941668,0.16265 -1.10698,1.7581 -0.305596,2.949411 -0.0951,8.056351 0.356403,8.648441 0.233346,0.30597 1.095557,0.7351 2.27045,1.13003 0.444578,0.1494 0.894732,0.34732 1.000311,0.43973 0.105563,0.0924 0.401141,0.16802 0.65678,0.16802 0.25564,0 0.464808,0.095 0.464808,0.21112 0,0.11605 0.152679,0.2111 0.339298,0.2111 0.408528,0 1.741841,0.4698 1.883634,0.6637 0.05562,0.076 0.328398,0.17377 0.606257,0.21726 0.277874,0.0435 0.485592,0.18582 0.461608,0.31631 -0.02587,0.14067 0.123506,0.19157 0.36693,0.12509 0.369965,-0.1011 0.765708,0.028 1.846358,0.60233 0.193004,0.1025 0.488552,0.18647 0.65678,0.18647 0.168229,0 0.305865,0.14893 0.305865,0.3309 0,0.23127 0.117824,0.2918 0.391542,0.20108 0.215343,-0.0713 0.556361,-0.0366 0.757813,0.0773 0.201468,0.11388 0.79826,0.32919 1.326196,0.47836 0.527952,0.14908 0.95991,0.34547 0.95991,0.43623 0,0.0908 0.183121,0.16502 0.406912,0.16502 0.392887,0 0.587836,0.0749 1.560679,0.60038 0.248566,0.13428 0.629687,0.24406 0.846926,0.24406 0.47303,0 0.727631,0.34133 0.36959,0.49548 -0.13965,0.0601 0.0307,0.0586 0.3784,-0.003 0.35838,-0.0637 0.691821,-0.0125 0.769751,0.1198 0.0757,0.12774 0.354079,0.23238 0.61884,0.23238 0.26475,0 0.53756,0.095 0.60626,0.21111 0.0686,0.11606 0.39358,0.21112 0.72196,0.21112 0.3284,0 0.77771,-0.095 0.9985,-0.21112 z m 28.443695,-6.86297 c 1.67322,-0.387 1.93954,-3.02194 0.62369,-6.17096 -0.20569,-0.49223 -0.37396,-0.988081 -0.37396,-1.101931 0,-0.11388 -0.18188,-0.54526 -0.40418,-0.95873 -0.22229,-0.41345 -0.40416,-1.02824 -0.40416,-1.36618 0,-0.33796 -0.0909,-0.67318 -0.20209,-0.74496 -0.12022,-0.0776 -0.20208,-1.41945 -0.20208,-3.314214 0,-2.784558 0.0444,-3.218886 0.35365,-3.464184 0.1945,-0.154227 0.47381,-0.283482 0.62069,-0.287158 0.63097,-0.01589 1.45068,-1.512716 1.45068,-2.649041 0,-1.223735 -0.79054,-2.424399 -1.59631,-2.424399 -0.22038,0 -0.45689,-0.09503 -0.52558,-0.211119 -0.0686,-0.11606 -0.30141,-0.211104 -0.51715,-0.211104 -0.21573,0 -0.39224,-0.09503 -0.39224,-0.211119 0,-0.11606 -0.22198,-0.21112 -0.49329,-0.21112 -0.27131,0 -0.54948,-0.09503 -0.61818,-0.211104 -0.0688,-0.116059 -0.30265,-0.211103 -0.51989,-0.211103 -0.21724,0 -0.55289,-0.08397 -0.74589,-0.186475 -0.19299,-0.102506 -0.62373,-0.303655 -0.95716,-0.446868 -0.33344,-0.143166 -0.76417,-0.344284 -0.95718,-0.446853 -0.19298,-0.102506 -0.49139,-0.186474 -0.66312,-0.186474 -0.17171,0 -0.36235,-0.136467 -0.42362,-0.30336 -0.0613,-0.166845 -0.24645,-0.249208 -0.41146,-0.183047 -0.2704,0.108427 -0.67325,-0.02944 -1.73516,-0.593788 -0.193,-0.102507 -0.53402,-0.18649 -0.75783,-0.18649 -0.22379,0 -0.40691,-0.09503 -0.40691,-0.21112 0,-0.116059 -0.1765,-0.211104 -0.39225,-0.211104 -0.21573,0 -0.44845,-0.09503 -0.51714,-0.211119 -0.0686,-0.116059 -0.30263,-0.211104 -0.51987,-0.211104 -0.21725,0 -0.5529,-0.08397 -0.7459,-0.18649 -0.193,-0.102506 -0.62372,-0.303655 -0.95716,-0.446852 -0.33345,-0.143166 -0.76417,-0.3443 -0.95717,-0.446853 -0.19299,-0.102506 -0.48978,-0.18649 -0.65952,-0.18649 -0.16974,0 -0.46653,-0.08397 -0.65952,-0.186474 -0.193,-0.102507 -0.62372,-0.303656 -0.95717,-0.446869 -0.33343,-0.143166 -0.76417,-0.344284 -0.95716,-0.446852 -0.193,-0.102507 -0.54375,-0.18649 -0.77945,-0.18649 -0.27576,0 -0.39137,-0.101104 -0.32431,-0.2837 0.0737,-0.200541 -0.0315,-0.256608 -0.35887,-0.191241 -0.25468,0.05094 -0.52457,-0.0109 -0.59972,-0.138493 -0.0752,-0.12712 -0.35328,-0.230997 -0.61803,-0.230997 -0.26474,0 -0.53756,-0.09503 -0.60626,-0.211104 -0.0686,-0.116059 -0.34687,-0.211119 -0.61818,-0.211119 -0.2713,0 -0.49328,-0.09503 -0.49328,-0.21112 0,-0.116059 -0.22735,-0.211103 -0.50523,-0.211103 -0.27785,0 -0.5052,-0.09503 -0.5052,-0.21112 0,-0.116059 -0.22735,-0.211104 -0.50521,-0.211104 -0.27788,0 -0.50523,-0.09503 -0.50523,-0.211119 0,-0.11606 -0.13786,-0.21112 -0.3063,-0.21112 -0.49001,0 -1.91663,-0.509665 -1.91663,-0.684735 0,-0.08786 -0.22735,-0.159711 -0.50522,-0.159711 -0.27786,0 -0.50521,-0.09503 -0.50521,-0.211119 0,-0.11606 -0.17652,-0.211104 -0.39225,-0.211104 -0.21573,0 -0.448454,-0.09503 -0.517144,-0.21112 -0.15435,-0.260908 -1.99918,-0.279244 -2.47829,-0.02461 -0.193,0.102507 -0.62373,0.303656 -0.95717,0.446869 -0.33344,0.143166 -0.76417,0.344284 -0.95716,0.446853 -0.193,0.102506 -0.52865,0.186474 -0.745893,0.186474 -0.217242,0 -0.451186,0.09503 -0.519892,0.211119 -0.06863,0.11606 -0.346864,0.211104 -0.618174,0.211104 -0.27131,0 -0.493277,0.09503 -0.493277,0.211119 0,0.11606 -0.183121,0.21112 -0.406928,0.21112 -0.223791,0 -0.564809,0.08397 -0.757813,0.186474 -0.193005,0.102506 -0.623721,0.303656 -0.957173,0.446853 -0.333437,0.143166 -0.764154,0.3443 -0.957158,0.446868 -0.193005,0.102507 -0.534022,0.186475 -0.757814,0.186475 -0.223806,0 -0.406927,0.09503 -0.406927,0.211119 0,0.11606 -0.272805,0.211104 -0.606257,0.211104 -0.333437,0 -0.606257,0.09503 -0.606257,0.211119 0,0.11606 -0.227335,0.211104 -0.505209,0.211104 -0.277874,0 -0.505209,0.09503 -0.505209,0.211119 0,0.11606 -0.164804,0.21112 -0.366212,0.21112 -0.201423,0 -0.742667,0.189995 -1.202765,0.422223 -0.460083,0.232228 -0.971961,0.422223 -1.137498,0.422223 -0.165522,0 -0.357166,0.09503 -0.425857,0.21112 -0.06863,0.116059 -0.302635,0.211103 -0.519877,0.211103 -0.217243,0 -0.552907,0.08397 -0.745897,0.18649 -0.193004,0.102507 -0.578251,0.279852 -0.856125,0.39398 -0.277874,0.11419 -0.749321,0.327911 -1.047679,0.475096 -0.298344,0.147217 -0.730421,0.216261 -0.960179,0.153448 -0.229757,-0.06278 -0.366376,-0.02726 -0.303592,0.07883 0.0628,0.10609 -0.05084,0.248368 -0.252335,0.316134 -0.201557,0.06777 -0.593801,0.222305 -0.871675,0.343427 -0.277859,0.121045 -0.73256,0.313579 -1.010434,0.427707 -0.277859,0.11419 -0.66312,0.291411 -0.85611,0.39398 -0.193004,0.102506 -0.528654,0.18649 -0.745896,0.18649 -0.217243,0 -0.440062,0.07618 -0.495146,0.169306 -0.05503,0.09316 -0.566394,0.301927 -1.136212,0.464021 -0.569818,0.162109 -1.081113,0.370923 -1.136197,0.464035 -0.05503,0.09316 -0.322148,0.169307 -0.593458,0.169307 -0.27131,0 -0.493292,0.09503 -0.493292,0.21112 0,0.116059 -0.221967,0.211103 -0.493277,0.211103 -0.27131,0 -0.549498,0.09503 -0.618189,0.21112 -0.06863,0.116059 -0.301409,0.211119 -0.517141,0.211119 -0.215732,0 -0.392244,0.09503 -0.392244,0.211104 0,0.11606 -0.204608,0.212568 -0.4547,0.214344 -0.941882,0.0062 -1.364071,0.810766 -1.364071,2.597928 0,1.222099 0.05326,1.389786 0.604508,1.902878 0.332479,0.309467 0.742936,0.562679 0.912121,0.562679 0.169201,0 0.510996,0.109828 0.759578,0.244068 0.970525,0.524138 1.167223,0.600379 1.548747,0.600379 0.217242,0 0.451201,0.09503 0.519892,0.211119 0.06863,0.11606 0.358003,0.211119 0.64292,0.211119 0.449347,0 0.48287,0.04424 0.252903,0.333738 -0.235977,0.297035 -0.185678,0.318175 0.457317,0.192145 0.446207,-0.08739 0.774515,-0.05359 0.858577,0.08849 0.07491,0.126498 0.322358,0.230079 0.549977,0.230079 0.28061,0 0.377262,0.0997 0.300183,0.309513 -0.08897,0.242152 0.01047,0.283466 0.459081,0.189855 0.322701,-0.06746 0.632797,-0.01823 0.71025,0.112632 0.07566,0.127743 0.315225,0.232384 0.532467,0.232384 0.217242,0 0.598362,0.109828 0.846944,0.244083 0.970526,0.524122 1.167224,0.600374 1.548747,0.600374 0.217242,0 0.451186,0.095 0.519892,0.21111 0.06863,0.11606 0.346864,0.21112 0.618174,0.21112 0.27131,0 0.493292,0.095 0.493292,0.2111 0,0.11606 0.22735,0.21112 0.505209,0.21112 0.277874,0 0.505224,0.095 0.505224,0.21112 0,0.11606 0.272805,0.2111 0.606257,0.2111 0.333437,0 0.606257,0.095 0.606257,0.21112 0,0.11606 0.183106,0.21111 0.406912,0.21111 0.223792,0 0.564824,0.088 0.757814,0.19571 0.193005,0.10765 0.51581,0.24944 0.717368,0.31517 0.201557,0.0657 0.322028,0.19459 0.267706,0.28641 -0.05428,0.0918 0.144589,0.16373 0.441886,0.15982 0.300302,-0.005 0.521253,0.10063 0.49703,0.23514 -0.02617,0.14581 0.119768,0.19758 0.366915,0.13008 0.22581,-0.0617 0.609188,-0.014 0.851968,0.10593 0.242766,0.11996 0.759698,0.33223 1.148713,0.47178 1.194376,0.42845 2.432413,0.94765 3.079056,1.2913 0.193005,0.1025 0.528655,0.18649 0.745897,0.18649 0.217242,0 0.451186,0.095 0.519892,0.21112 0.06863,0.11606 0.301394,0.2111 0.517141,0.2111 0.215717,0 0.39223,0.13366 0.39223,0.29691 0,0.19324 0.141449,0.25825 0.405252,0.1862 0.22288,-0.0609 0.518427,-0.0217 0.656796,0.0872 0.138306,0.1089 0.660746,0.32989 1.160896,0.49108 0.50016,0.161181 0.97066,0.385951 1.04556,0.499481 0.16945,0.25686 2.46605,0.16774 2.5583,-0.0992 0.0371,-0.10718 0.28176,-0.19498 0.54381,-0.19498 0.262044,0 0.537944,-0.103911 0.613114,-0.231001 0.0752,-0.12712 0.35334,-0.18772 0.61819,-0.13491 0.31657,0.0633 0.48152,-0.002 0.48152,-0.19124 0,-0.15806 0.17651,-0.28739 0.39224,-0.28739 0.21574,0 0.44845,-0.095 0.51715,-0.21111 0.0686,-0.11606 0.39233,-0.21112 0.71922,-0.21112 0.32688,0 0.59432,-0.095 0.59432,-0.2111 0,-0.11606 0.17651,-0.21112 0.39225,-0.21112 0.21574,0 0.45374,-0.10391 0.5289,-0.231 0.0752,-0.12712 0.35334,-0.18772 0.61819,-0.13491 0.26484,0.053 0.48153,0.0189 0.48153,-0.0757 0,-0.0946 0.34102,-0.32687 0.75781,-0.51625 0.41681,-0.18937 0.91574,-0.43134 1.10873,-0.53768 0.19301,-0.1064 0.52866,-0.19337 0.74591,-0.19337 0.21723,0 0.45647,-0.10391 0.53165,-0.231 0.0752,-0.12697 0.35057,-0.18827 0.61206,-0.136 0.26147,0.0522 0.42691,0.0125 0.36767,-0.0872 -0.0592,-0.10017 0.0571,-0.23587 0.25872,-0.30158 0.20155,-0.0657 0.52437,-0.20756 0.71737,-0.31519 0.44992,-0.25092 1.02083,-0.25371 0.87325,-0.005 -0.0624,0.10531 0.0891,0.13615 0.33651,0.0685 0.24737,-0.0676 0.33843,-0.16164 0.20237,-0.20901 -0.39105,-0.13616 -0.28788,-0.4732 0.14489,-0.4732 0.21573,0 0.44845,-0.095 0.51714,-0.2111 0.0686,-0.11606 0.34688,-0.21112 0.61819,-0.21112 0.27131,0 0.49329,-0.095 0.49329,-0.21111 0,-0.11605 0.1831,-0.21111 0.40691,-0.21111 0.22379,0 0.58755,-0.095 0.80834,-0.21112 0.22078,-0.11606 0.58208,-0.30611 0.80286,-0.42223 0.22079,-0.11606 0.58453,-0.2111 0.80834,-0.2111 0.22381,0 0.40691,-0.09503 0.40691,-0.211119 0,-0.116059 0.27282,-0.211119 0.60626,-0.211119 0.33344,0 0.60626,-0.07976 0.60626,-0.177314 0,-0.09752 0.38648,-0.304045 0.85886,-0.458942 0.47237,-0.15485 0.94525,-0.36008 1.05085,-0.456013 0.10556,-0.09596 0.40114,-0.174401 0.65678,-0.174401 0.25564,0 0.46479,-0.09503 0.46479,-0.211119 0,-0.11606 0.18311,-0.211104 0.40691,-0.211104 0.22381,0 0.58757,-0.09503 0.80836,-0.211119 0.22078,-0.11606 0.5833,-0.306912 0.8056,-0.424015 0.39492,-0.208035 0.40416,-0.143166 0.40416,2.837565 0,1.80592 -0.0824,3.1037 -0.20208,3.18094 -0.1111,0.0718 -0.20208,0.45178 -0.20208,0.84446 0,0.39269 -0.073,0.76106 -0.16207,0.81862 -0.0891,0.0575 -0.28746,0.58566 -0.44071,1.17357 -0.15324,0.587921 -0.35314,1.068951 -0.44418,1.068951 -0.0911,0 -0.16557,0.2319 -0.16557,0.51532 0,0.28344 -0.0909,0.57404 -0.20208,0.64581 -0.30851,0.19918 -0.26192,4.46284 0.0505,4.62421 0.1389,0.0718 0.52542,0.31595 0.85886,0.54265 0.50871,0.34586 0.88268,0.40009 2.32399,0.33696 0.94475,-0.0414 2.01457,-0.14394 2.37738,-0.22779 z m -29.107405,-5.93136 c -0.0671,-0.0701 -0.241479,-0.0776 -0.387339,-0.0167 -0.161231,0.0675 -0.11334,0.11746 0.122159,0.12759 0.21302,0.009 0.332401,-0.0408 0.265241,-0.11092 z m 3.894345,-1.343611 c 0,-0.11248 -0.13636,-0.14987 -0.30313,-0.083 -0.16673,0.0668 -0.30312,0.15886 -0.30312,0.20449 0,0.0456 0.13636,0.083 0.30312,0.083 0.16672,0 0.30313,-0.0921 0.30313,-0.20447 z m -15.968827,-1.38396 c -0.140552,-0.17699 -0.297238,-0.27831 -0.348105,-0.22518 -0.140104,0.14644 0.144589,0.54695 0.388835,0.54695 0.133972,0 0.118721,-0.1212 -0.04067,-0.32177 z m -3.229313,-1.45011 c 0,-0.0456 -0.14115,-0.13958 -0.313625,-0.20872 -0.179847,-0.0721 -0.260963,-0.0368 -0.190164,0.083 0.118722,0.20062 0.503789,0.29673 0.503789,0.12572 z"
       id="path11" /><path
       style="font-variation-settings:normal;vector-effect:none;fill:#8dcc3a;fill-opacity:1;stroke-width:1.05854;stroke-linecap:butt;stroke-linejoin:miter;stroke-miterlimit:4;stroke-dasharray:none;stroke-dashoffset:0;stroke-opacity:1;-inkscape-stroke:none;stop-color:#000000"
       d="m 74.498354,145.73297 c -3.202294,-1.29937 -6.068085,-1.71017 -10.452212,-1.49826 -1.960298,0.0947 -3.845201,0.25924 -4.188674,0.36553 l -0.624491,0.19325 v -16.89265 c 0,-12.75315 0.08161,-16.97768 0.333063,-17.23964 0.587632,-0.61225 6.954336,-0.44994 9.33717,0.23804 2.842198,0.82059 5.780867,2.41899 7.329853,3.98685 l 1.318376,1.33444 -0.003,13.7467 c -0.003,12.94129 -0.123207,16.82363 -0.521956,16.75303 -0.0933,-0.0165 -1.231144,-0.46078 -2.528707,-0.98729 z"
       id="path4" /><path
       style="font-variation-settings:normal;vector-effect:none;fill:#8dcc3a;fill-opacity:1;stroke-width:1.05854;stroke-linecap:butt;stroke-linejoin:miter;stroke-miterlimit:4;stroke-dasharray:none;stroke-dashoffset:0;stroke-opacity:1;-inkscape-stroke:none;stop-color:#000000"
       d="m 80.604524,132.74624 v -14.29318 l 0.730062,-0.59832 c 2.294166,-1.88016 8.492142,-2.42413 13.616569,-1.19507 1.55551,0.37307 3.30409,0.95641 3.88574,1.2963 l 1.05751,0.61798 0.0722,13.11436 0.0722,13.11436 -1.043675,-0.18443 c -0.57402,-0.10142 -2.27087,-0.33337 -3.77076,-0.51539 -4.040764,-0.49039 -8.515755,0.3067 -12.458443,2.21908 -0.807186,0.39153 -1.623748,0.71314 -1.814554,0.71469 -0.27291,0.002 -0.346939,-3.0471 -0.346939,-14.29038 z"
       id="path5" /><path
       style="font-variation-settings:normal;vector-effect:none;fill:#8dcc3a;fill-opacity:1;stroke-width:1.05854;stroke-linecap:butt;stroke-linejoin:miter;stroke-miterlimit:4;stroke-dasharray:none;stroke-dashoffset:0;stroke-opacity:1;-inkscape-stroke:none;stop-color:#000000"
       d="m 76.895107,155.55287 c -2.214319,-1.57892 -3.970126,-2.3969 -6.976365,-3.2501 -2.556279,-0.72551 -9.82307,-0.62982 -12.767408,0.16811 -1.455747,0.39452 -2.316005,0.50397 -2.49797,0.31786 -0.152656,-0.15613 -0.277556,-0.92441 -0.277556,-1.70728 0,-2.03877 0.512842,-2.45312 4.073783,-3.29145 5.236535,-1.23278 9.974099,-1.23663 13.485666,-0.0109 1.665689,0.5814 4.420669,2.05544 5.893742,3.15342 0.686941,0.51202 1.384181,1.01092 1.54942,1.10866 0.165253,0.0977 1.144047,-0.46307 2.175099,-1.24623 3.422242,-2.59942 7.34147,-4.04769 10.940778,-4.04296 1.910115,0.003 6.303769,0.74958 8.407634,1.42958 1.53442,0.49592 1.89708,0.73793 2.18279,1.45655 0.37907,0.95351 0.18478,2.67254 -0.35273,3.12073 -0.22624,0.18864 -1.17349,0.10032 -2.837585,-0.26437 -3.69217,-0.8093 -8.399836,-0.99406 -10.963322,-0.43027 -2.461795,0.54142 -5.672806,2.15458 -7.698158,3.8674 -0.799276,0.67595 -1.611113,1.21747 -1.804087,1.2034 -0.192975,-0.014 -1.333149,-0.72603 -2.533731,-1.5821 z"
       id="path6" /><path
       style="font-variation-settings:normal;vector-effect:none;fill:#0089ad;fill-opacity:1;stroke:#0089ad;stroke-width:1.52622;stroke-linecap:butt;stroke-linejoin:miter;stroke-miterlimit:4;stroke-dasharray:none;stroke-dashoffset:0;stroke-opacity:1;-inkscape-stroke:none;stop-color:#000000"
       d="m 82.874152,86.369098 c 0.696554,0.326914 0.857172,1.16784 1.38466,1.648732 0.764302,0.696762 4.212637,2.115976 5.14297,2.473081 0.510189,0.195837 1.069734,0.223629 1.582449,0.412175 6.578784,2.419153 -2.394524,-0.380924 3.362718,1.030454 1.904136,0.466777 3.598816,1.469859 5.538596,1.854799 0.650935,0.12915 1.335205,0.0386 1.978065,0.20609 0.4291,0.1117 0.77617,0.44714 1.18684,0.61828 0.76823,0.32015 4.17446,1.42124 4.94516,0.61826"
       id="path53" /><path
       style="font-variation-settings:normal;vector-effect:none;fill:#0089ad;fill-opacity:1;stroke:#0089ad;stroke-width:1.52622;stroke-linecap:butt;stroke-linejoin:miter;stroke-miterlimit:4;stroke-dasharray:none;stroke-dashoffset:0;stroke-opacity:1;-inkscape-stroke:none;stop-color:#000000"
       d="m 114.12763,89.460458 c -5.48694,1.870133 -11.11434,3.334852 -16.615765,5.152251 -0.59343,0.27479 -1.18684,0.54958 -1.78027,0.82435 -0.0659,0.0687 -0.11439,0.16266 -0.19781,0.2061 -0.18727,0.0975 -1.186836,0.28916 -1.186836,0.41218 0,0.52295 7.438411,-0.78749 7.714461,-0.82437 1.37962,-0.18427 2.78031,-0.18449 4.15395,-0.41217 8.41488,-1.39479 0.71505,-0.77394 8.9013,-1.648718 1.11698,-0.119331 2.25116,-0.04066 3.36271,-0.206088 0.74423,-0.110763 1.4387,-0.464659 2.17588,-0.618278 0.25862,-0.0539 0.52749,0 0.79123,0 0.0659,0 0.22729,-0.06138 0.19781,0 -0.93016,1.938214 -5.17457,2.597634 -6.72544,3.091344 -5.11078,1.62703 -2.37736,1.07267 -8.30788,2.67919 -3.0182,0.81758 -6.06347,1.52281 -9.099105,2.266991 -4.352998,1.06711 -1.19505,0.0715 -5.142989,1.44263 -0.197804,0.0687 -0.740857,0.35969 -0.593413,0.20609 0.271849,-0.28325 0.632977,-0.46714 0.989037,-0.61828 5.059645,-2.147651 9.68761,-2.911371 15.03331,-3.915711 7.28182,-1.3681 4.40607,-1.02331 10.87937,-2.06091 0.98619,-0.15807 1.97847,-0.27172 2.96711,-0.41217 0.46195,-0.0656 0.92125,-0.15252 1.38464,-0.20609 0.13098,-0.0156 0.30237,-0.0972 0.39561,0 0.0659,0.0687 -0.12111,0.1508 -0.1978,0.20609 -0.78186,0.56395 -1.55826,1.13898 -2.37369,1.64873 -0.91722,0.57338 -5.54793,3.06718 -6.132,3.29743 -1.2116,0.477631 -2.51154,0.664081 -3.75833,1.030451 -3.45031,1.01391 -5.7029,2.0754 -8.90131,3.50354 -0.19164,0.0855 -0.44598,0.3597 -0.59341,0.20608 -0.14743,-0.1536 0.0504,-0.46465 0.1978,-0.61826 0.79397,-0.82721 1.61415,-1.65568 2.57149,-2.26699 3.14513,-2.008391 6.4575,-3.717591 9.69253,-5.564441 4.15982,-2.3748 4.61104,-2.47009 8.30788,-4.946167 1.03169,-0.690999 1.91542,-1.609552 2.96711,-2.266995 0.0842,-0.0525 0,0.300602 0,0.824366"
       id="path54" /><path
       style="font-variation-settings:normal;vector-effect:none;fill:#0089ad;fill-opacity:1;stroke:#0089ad;stroke-width:1.52622;stroke-linecap:butt;stroke-linejoin:miter;stroke-miterlimit:4;stroke-dasharray:none;stroke-dashoffset:0;stroke-opacity:1;-inkscape-stroke:none;stop-color:#000000"
       d="m 125.007,94.612709 c 0.32967,1.8548 0.58923,3.72466 0.98904,5.564431 0.39204,1.80405 0.92142,3.5727 1.38465,5.35835 0.19614,0.75613 0.3997,1.51018 0.59341,2.26698 0.07,0.27368 -0.0601,0.7348 0.1978,0.82437 0.61616,0.21398 0.37641,-2.39895 0.39563,-2.67917 0.15885,-2.31719 0.1078,-4.23591 0,-6.594881 -0.0609,-1.33065 -0.1419,-2.249 -0.59343,-3.50354 -0.0733,-0.20341 -0.16354,-0.404 -0.19781,-0.61828 -0.0324,-0.20328 0.13981,-0.47254 0,-0.61826 -0.48589,-0.50624 -0.32817,0.40749 -0.59341,1.23654 -0.43538,1.36081 -1.02963,2.71622 -1.38466,4.1218 -0.13532,0.535621 -0.0782,1.109061 -0.1978,1.648711 -0.84743,2.20732 -0.18484,0.11155 -0.39561,1.64874 -0.0659,0.27479 -0.13188,0.54957 -0.19781,0.82436 -0.0659,0 -0.15118,-0.0486 -0.1978,0 -0.0466,0.0486 0,0.27478 0,0.20609 0,-1.78612 -0.0504,-3.573 0,-5.358351 0.0253,-0.89531 0.17733,-1.78372 0.1978,-2.67917 0.0455,-1.99165 0,-3.984415 0,-5.976621 0,-0.02804 0,-1.058463 0,-1.030438 0,1.782084 0.0854,3.578795 0,5.358339 -0.23321,4.85944 -0.1978,0.87035 -0.1978,4.1218 0,0.41219 0,0.82436 0,1.23654 0,0.206091 0,0.412191 0,0.618281 0,0.0687 -0.0659,0.20608 0,0.20608 0.0659,0 0,-0.1374 0,-0.20608 0,-0.755671 -0.0483,-1.513011 0,-2.267001 0.0181,-0.28262 0.14444,-1.1021 0.1978,-0.82436 0.11633,0.60626 -0.0395,1.23791 0,1.85482 0.0926,1.445941 0.31846,2.880951 0.39561,4.327881 0.10975,2.05773 0,4.12181 0,6.18271 0,2.45269 -0.14593,0.62828 0.19781,2.0609 0.016,0.0667 0,0.27479 0,0.20609 0,-1.40885 -0.0164,1.50921 0.1978,-2.06091 0.21028,-3.50515 0.43752,-7.00962 0.79123,-10.510591 0.2387,-2.3626 0.19781,-0.86353 0.19781,-2.67917 0,-0.20608 0.1978,-0.61827 0,-0.61827 -0.0659,0 0.0105,0.13833 0,0.20608 -0.2413,1.50842 -0.0899,0.53385 -0.39561,1.64874 -0.0556,0.2028 -0.109,1.46356 -0.19781,1.64871 -0.32875,0.685051 -0.98903,0.806981 -0.98903,1.648721"
       id="path55" /><path
       style="font-variation-settings:normal;vector-effect:none;fill:#0089ad;fill-opacity:1;stroke:#0089ad;stroke-width:1.52622;stroke-linecap:butt;stroke-linejoin:miter;stroke-miterlimit:4;stroke-dasharray:none;stroke-dashoffset:0;stroke-opacity:1;-inkscape-stroke:none;stop-color:#000000"
       d="m 124.41358,104.50504 c -5.02419,0.006 -10.01809,0.62339 -15.03331,0.82436 -0.5271,0.021 -2.0117,0.31942 -1.58246,0 1.56667,-1.16592 8.3768,-2.13876 10.08815,-2.47309 1.38128,-0.26982 2.92438,-0.38992 4.15394,-1.03044 0.33533,-0.1747 1.99263,-0.1664 2.37368,-0.20611 2.75985,-0.28753 -0.50418,-0.14519 2.57148,-0.41217 1.11897,-0.0972 2.24273,-0.12276 3.36272,-0.20609 0.19731,-0.014 -0.40032,-0.0447 -0.59341,0 -0.4071,0.0942 -0.78881,0.2826 -1.18684,0.41218 -3.34862,1.09027 -1.65864,0.54194 -6.72544,1.23654 -1.79023,0.24542 -3.80104,0.42702 -5.53859,1.03045 -0.0625,0.0217 0.13337,0.0156 0.19782,0 1.71748,-0.39764 3.42373,-0.84714 5.14297,-1.23654 1.3187,-0.27479 2.63742,-0.54958 3.95613,-0.82437 1.18684,-0.1374 2.38833,-0.17469 3.56052,-0.41217 7.933,-2.295891 0.85701,-0.60451 4.94517,-1.03045 0.23656,-0.0246 0.83115,-0.412181 0.59342,-0.412181 -0.0659,0 0.0603,0.17819 0,0.20609 -1.52285,0.705171 -1.36878,0.618281 -2.57148,0.618281 -2.0271,0 -2.78357,-2.101631 -3.75833,-3.709631 -1.58722,-2.61832 -2.67489,-5.496967 -3.56052,-8.449694 -0.28504,-0.950271 -0.19782,-1.908814 -0.19782,-2.885273 0,-0.02804 0,-1.058463 0,-1.030438 0,1.523871 -0.25263,3.498457 0,4.946164 0.0635,0.363975 0.33725,0.665528 0.39562,1.030438 0.2006,1.254066 -0.2016,2.461258 0.19781,3.709623 0.0208,0.0651 0.15948,0.0559 0.1978,0 0.63785,-0.930378 1.24408,-1.88769 1.78027,-2.885257 0.38927,-0.724228 0.64528,-1.518169 0.98902,-2.266995 0.57251,-1.247196 1.36066,-2.398071 1.78027,-3.709622 0.24117,-0.753796 0.1978,-1.314371 0.1978,-2.060891 0,-0.206104 0.16962,-0.724306 0,-0.618279 -0.44158,0.276051 -0.66993,0.815424 -0.98903,1.236541 -0.67009,0.884343 -1.29764,1.803442 -1.97806,2.67917 -1.73861,2.237628 -3.63628,4.374947 -5.14298,6.800983 -0.68534,1.10352 -0.57899,1.63368 -1.38465,2.47308 -0.0466,0.0486 -0.026,-0.14301 0,-0.20609 0.56964,-1.38481 1.05414,-2.818889 1.78027,-4.12181 0.47055,-0.844337 1.22323,-1.481824 1.78025,-2.266994 0.56523,-0.79673 1.0932,-1.62351 1.58245,-2.473082 0.29229,-0.507515 0.81411,-1.537969 0.98904,-2.266979 0.032,-0.133351 0,-0.549577 0,-0.41219 0,1.613617 -1.77291,3.432637 -2.57149,4.740076 -0.53227,0.871444 -0.95185,1.983404 -1.38464,2.885257 -0.37587,0.783207 0.51337,-1.079557 1.18684,-2.266979 0.78235,-1.379442 1.63726,-2.715187 2.37368,-4.121813 0.47533,-0.907929 0.4258,-1.442629 0.39561,-1.442629 -0.0659,0 0,0.137402 0,0.206088 0,0.274788 0,0.549577 0,0.824366 0,2.721449 0.0646,-0.673629 -0.19781,2.060906 -0.0459,0.478493 0,0.961753 0,1.442629 0,0.0687 0,0.274788 0,0.206087 0,-0.983577 -0.0259,-0.936141 0.39561,-2.473082 0.081,-0.295398 0.26375,-0.549577 0.39563,-0.824365 0.0933,-0.194295 0.10451,-0.812573 0.1978,-0.618263 0.85891,1.789732 0.0357,4.481816 -0.98904,5.976617 -0.11782,0.17183 -0.52659,0.920158 -0.79123,1.030438 -0.42762,0.178217 -2.91936,0.0093 -2.96709,0 -1.14737,-0.229876 -2.23551,-0.710145 -3.36272,-1.030438 -8.39014,-2.384051 2.52081,1.03589 -6.72543,-2.266994 -1.5685,-0.560295 -4.28359,-1.235716 -5.93421,-1.854819 -0.80648,-0.302488 -1.56812,-0.725256 -2.37368,-1.030454 -2.5775,-0.976505 -6.201745,-1.672956 -8.901305,-2.060891 -4.369184,-0.62789 -7.615946,-1.030453 -12.066205,-1.030453 -0.659368,0 -1.318721,0 -1.978073,0 -0.263744,0 -1.054976,0 -0.791232,0 2.384551,0 -3.612272,-0.01402 3.560522,0.206087 2.571231,0.07883 5.142897,0.140674 7.714472,0.206088 3.746466,0.09518 7.527907,0 11.274981,0 1.05498,0 2.10995,0 3.16491,0 0.59343,0 1.18684,0 1.78027,0 0.0659,0 0.19781,0.0687 0.19781,0 0,-0.0687 -0.13188,0 -0.19781,0 -0.98903,0 -1.97807,0 -2.96711,0 -1.58245,0 -3.16491,0 -4.74736,0 -1.846194,0 -3.692394,0 -5.538594,0 -1.648392,0 -3.296781,0 -4.94517,0 -5.802323,0 -11.604661,0 -17.406985,0 -0.575156,0 -3.079296,-0.06154 -3.362717,0.824366 -0.125151,0.391035 0.05592,0.828509 0,1.236541 -0.140253,1.023349 -0.197804,1.361682 -0.197804,2.473081 0,2.137257 0.003,3.91878 1.582449,5.564442 0.14743,0.153604 0.406926,0.108894 0.593427,0.206088 0.496642,0.258708 -0.009,1.163418 0.989022,-0.618279 1.0395,-1.856626 0.893715,-4.146598 1.18684,-6.182704 0.389972,-2.708675 0.590079,-1.082828 0.395624,-4.121798 -0.01809,-0.282609 -0.153112,-0.544966 -0.197804,-0.824366 -0.03245,-0.203283 0.176915,-0.5261 0,-0.618262 -0.316317,-0.164789 -3.779544,1.377869 -4.351754,1.854803 -0.547315,0.4562 -0.889035,1.132352 -1.384651,1.648732 -0.298537,0.311024 -0.746922,0.463989 -0.989033,0.82435 -0.239141,0.355937 -0.226248,0.839524 -0.395613,1.236541 -0.09655,0.22634 -0.307321,0.388293 -0.395616,0.618278 -0.07346,0.191351 -0.197806,0.618263 0,0.618263 0.09324,0 0.153155,-0.120733 0.197807,-0.206088 0.353002,-0.674267 0.670033,-1.368475 0.989034,-2.060906 0.472296,-1.025141 0.94509,-2.050516 1.384643,-3.091345 0.286008,-0.677227 0.548541,-1.365562 0.791232,-2.060906 0.02258,-0.0645 0,-0.274789 0,-0.206088 0,0.796325 -0.07566,1.684375 0,2.473082 0.08164,0.84979 0.608754,1.790932 0.395609,2.679169 -0.08613,0.358897 -0.263744,0.686979 -0.395609,1.030453 -0.131879,0.549578 -0.281687,1.094808 -0.395608,1.648716 -0.154473,0.751007 -0.27442,1.509398 -0.395624,2.266995 -0.01047,0.06777 0,0.274788 0,0.206087 0,-1.648544 -0.197804,-3.287134 -0.197804,-4.946163 0,-0.343474 0,-0.686964 0,-1.030438 0,-0.137402 0.0933,-0.509338 0,-0.412191 -0.384469,0.400569 -0.204697,1.118301 -0.395609,1.648732 -0.08348,0.231916 -0.337954,0.377965 -0.395616,0.618262 -0.07995,0.333224 0,0.686964 0,1.030454 0,0.274788 0,0.549577 0,0.824366 0,0.0687 -0.05897,0.236808 0,0.206087 0.166807,-0.08693 0.252346,-0.287796 0.395616,-0.412191 0.648678,-0.563192 1.329396,-1.085523 1.978073,-1.648716 0.538448,-0.467494 1.086824,-0.926264 1.582449,-1.442628 0.429849,-0.44785 0.868236,-0.90324 1.186841,-1.442628 0.527488,-0.893067 0.230774,-1.099155 0.593412,-1.85482 0.02946,-0.06138 0,0.137403 0,0.206088 0,0.412191 0.06504,0.829974 0,1.236541 -0.06863,0.428564 -0.263744,0.824366 -0.395608,1.236541 0,0.480891 0.04187,0.963731 0,1.442644 -0.06265,0.718557 -0.545356,1.390627 -0.395608,1.442628 1.089337,0.378308 4.028948,-2.898701 4.549558,-3.91571 0.265105,-0.517906 0.415271,-1.09191 0.593413,-1.648732 0.227215,-0.71016 0.223702,-1.23654 0.197804,-1.23654 -3.653704,0 -9.46953,5.073159 -12.264017,7.831436 -0.422756,0.417269 -2.571488,2.303525 -2.571488,3.297432 0,0.0687 0.13315,0.01402 0.197807,0 0.925721,-0.192893 1.864139,-0.338848 2.769294,-0.618263 0.880538,-0.271829 1.69746,-0.736706 2.571484,-1.030453 1.172292,-0.393995 2.396035,-0.612094 3.560522,-1.030454 0.753193,-0.270598 1.471757,-0.642066 2.175877,-1.030453 0.514016,-0.283513 1.330995,-1.043913 1.978072,-1.236541 1.124923,0 0.130235,0.09222 0.989036,-0.206088 1.015084,-0.352525 5.092193,0.383122 5.53858,0.412176 1.052912,0.06855 2.110371,-0.03147 3.164913,0 8.621329,0.256639 -0.396192,0.206103 6.52763,0.206103 1.054962,0 2.109938,0 3.1649,0 0.32968,0 0.65935,0 0.98903,0 0.13188,0 0.52749,0 0.39561,0 -2.2387,0 0.58329,0.04518 -4.351735,-0.618279 -3.535821,-0.47533 -7.125769,-0.412175 -10.681565,-0.412175 -0.272177,0 -3.560523,-0.304714 -3.560523,0.618263"
       id="path56" /><path
       style="font-variation-settings:normal;vector-effect:none;fill:#0089ad;fill-opacity:1;stroke:#0089ad;stroke-width:1.52622;stroke-linecap:butt;stroke-linejoin:miter;stroke-miterlimit:4;stroke-dasharray:none;stroke-dashoffset:0;stroke-opacity:1;-inkscape-stroke:none;stop-color:#000000"
       d="m 100.47896,86.987376 c -4.923344,1.594254 -10.108835,1.939597 -15.231127,2.060891 -3.2204,0.07618 -6.475207,-0.176426 -9.692529,0 -4.289836,0.235235 0.231073,0.206088 -1.978072,0.206088 -0.06594,0 -0.263729,0 -0.197805,0 12.725578,0 25.451138,0 38.176703,0 2.6386,0 5.47212,0.249863 8.11008,0 0.85577,-0.08101 1.71717,-0.300914 2.57149,-0.412175 0.26171,-0.03412 0.52749,0 0.79123,0 0.0659,0 0.26375,0 0.19781,0 -1.19079,0 -2.36974,0.206087 -3.56053,0.206087 -0.77172,0 -11.58477,-0.399307 -12.46181,-0.412175 -2.63718,-0.03863 -5.2758,0.07322 -7.912284,0 -2.31069,-0.06418 -4.614047,-0.30406 -6.923239,-0.412175 -3.55937,-0.166674 -7.121955,-0.250938 -10.681565,-0.412191 -2.713652,-0.122914 -5.391434,-0.412175 -8.110064,-0.412175 -0.989037,0 -1.978073,0 -2.967109,0 -0.577893,0 -1.764733,0 -1.186841,0 4.283003,0 8.429177,-1.232911 12.659638,-1.648716 1.904806,-0.187237 3.824191,-0.139739 5.736398,-0.206103 3.95613,-0.137402 7.910512,-0.350624 11.868392,-0.412175 2.505284,-0.03895 5.011454,0.04284 7.516674,0 14.68682,-0.250844 -2.92961,-0.206087 7.51665,-0.206087 3.86315,0 0.61496,0.18328 3.75832,-0.412176 0.19462,-0.03692 0.39563,0 0.59343,0 0.13188,-0.0687 0.53864,-0.168839 0.39561,-0.206103 -0.3838,-0.100013 -0.79123,0 -1.18684,0 -1.18684,0 -2.37368,0 -3.56052,0 -1.78026,0 -3.56052,0 -5.34078,0 -4.8133,0 -9.627114,0.0726 -14.439894,0 -6.30786,-0.09518 -12.673676,-0.799253 -18.989447,-0.412175 -1.885294,0.115592 -4.779286,0.55989 -6.725435,0.824366 -1.859957,0.252761 -4.396567,-0.03754 -5.934206,1.030453 -0.197807,0.137402 0.170732,0.537925 0.395613,0.618263 2.150687,0.768252 4.314476,1.518355 6.527629,2.060907 2.279168,0.558721 4.612896,0.840427 6.923239,1.236541 10.624836,1.821605 6.395856,1.262307 16.615768,2.060891 4.761009,0.372045 9.471683,0.824365 14.242073,0.824365 0.0351,0 3.35683,0.100014 3.56052,0.206088 0.47547,0.247698 -0.8735,0.672209 -1.38464,0.824369 -0.90773,0.27021 -1.83528,0.47516 -2.76929,0.61826 -3.47275,0.5321 -6.99108,0.66657 -10.483765,1.03045 -6.682312,0.69622 -0.185299,0.1131 -6.329812,0.82437 -1.578068,0.18269 -3.175978,0.24846 -4.747361,0.41217 -2.365996,0.24652 0.04321,0.20609 -1.582465,0.20609 -0.527473,0 -0.263744,0 -0.791217,0 -0.06594,0 -0.197805,-0.0687 -0.197805,0 0,0.0687 0.132478,0.009 0.197805,0 1.320065,-0.19647 2.633492,-0.44159 3.95613,-0.61826 3.801628,-0.5078 7.654256,-0.89553 11.472796,-1.23654 1.582144,-0.1413 3.162514,-0.30899 4.747364,-0.41218 0.78968,-0.0514 1.5857,0.0746 2.37369,0 0.3956,-0.0687 0.79121,-0.1374 1.18684,-0.2061 0.13188,-0.0687 0.25103,-0.17596 0.3956,-0.20609 0.19397,-0.0405 0.40324,0.0566 0.59343,0 0.28353,-0.0844 0.50674,-0.33134 0.79122,-0.41217 0.44981,-0.12775 0.94234,-0.0525 1.38464,-0.20609 0.55949,-0.194311 1.04804,-0.564533 1.58247,-0.824367 0.83221,-0.404635 1.75006,-0.602543 2.57148,-1.030453 0.22711,-0.118396 1.40358,-1.05016 1.58245,-1.236541 0.23312,-0.242884 0.36031,-0.581482 0.59343,-0.82435 0.10422,-0.108582 0.3035,-0.08615 0.39561,-0.206103 0.18421,-0.239893 0.18711,-0.607109 0.39561,-0.82435 0.33622,-0.350298 0.82901,-0.498153 1.18684,-0.824366 0.45696,-0.416584 0.82547,-1.146716 1.18684,-1.648716 0.90485,-1.256996 0.59343,-0.769795 0.59343,0.82435 0,0.962438 -0.0446,3.480323 0,3.503535 0.42934,0.22366 0.946,-0.209063 1.38464,-0.412175 1.16558,-0.539731 2.1562,-1.731765 2.37368,-3.09136 0.43727,-2.73346 -2.02077,-3.970733 -4.15393,-4.74006 -4.64659,-1.675792 -9.79754,-1.442644 -14.63771,-1.442644 -1.25278,0 -2.50555,0 -3.75833,0 -1.25278,0 -2.534814,-0.280444 -3.758324,0 -1.78171,0.408389 -6.437667,2.050796 -8.703497,3.503535 -0.483065,0.309715 -0.906126,0.713182 -1.38466,1.030453 -0.639361,0.423906 -1.32334,0.483291 -1.978057,0.824366 -0.212637,0.110763 -0.376186,0.311585 -0.593428,0.412175 -0.924996,0.42833 -1.494096,0.274617 -2.373681,0.618278 -0.276095,0.107803 -0.502084,0.351918 -0.791217,0.412175 -1.241118,0.258618 -2.692615,-0.09409 -3.956146,0 -0.465047,0.03459 -0.919597,0.171473 -1.384645,0.206088 -1.105695,0.08225 -2.252358,0 -3.362718,0 -0.197804,0 -0.681885,0.18434 -0.593412,0 0.131879,-0.274789 0.515122,-0.30431 0.791217,-0.412175 0.780929,-0.305104 1.57273,-0.58209 2.373681,-0.824366 4.676712,-1.414618 3.159621,-0.827684 8.307884,-1.854804 5.785009,-1.154162 11.580658,-2.171607 17.407003,-3.09136 0.98653,-0.155784 1.97205,-0.335388 2.96711,-0.412175 1.86118,-0.143633 2.71709,0.131638 4.54954,0 1.19133,-0.08568 2.37087,-0.304403 3.56053,-0.41219 0.87354,-0.07914 1.7446,-0.12494 2.5715,-0.412175 0.67822,-0.235547 2.17586,-1.332738 2.17586,-2.060907 0,-0.0687 0.0631,-0.185882 0,-0.206088 -3.54554,-1.13662 -7.42127,-0.618262 -11.07718,-0.618262 -2.87418,0 -5.70852,0.01558 -8.505684,0.82435 -1.84621,0.53431 -3.733824,1.434122 -5.538599,2.060907 -0.455388,0.158152 -0.941547,0.219827 -1.384645,0.412175 -0.796465,0.345764 -1.328229,0.809675 -2.175876,1.030453 -0.869539,0.226495 -1.522148,0.07929 -2.373682,0.206088 -0.206401,0.03069 -0.386517,0.179152 -0.593412,0.206103 -1.763627,0.229673 -3.55967,0.206087 -5.34079,0.206087 -2.232846,0 -3.727629,-0.211524 -5.7364,-1.442628 -0.284154,-0.174168 -0.360305,-0.581482 -0.593413,-0.824366 -0.06414,-0.06683 -1.053838,-0.753328 -1.18684,-1.030453 -0.05891,-0.122914 0.032,-0.278886 0,-0.412175 -0.238804,-0.9952 -0.09405,0.0109 -0.395608,-0.618279 -0.557423,-1.161499 2.967901,0.759528 4.549543,1.236541 4.943971,1.491078 3.960706,0.779843 9.494725,1.854819 24.824861,4.822175 -8.746841,-1.042448 11.274997,1.854804 0.74462,0.107803 1.427819,0.540339 2.175874,0.618278 1.90378,0.198345 3.82443,0.132261 5.7364,0.206088 2.751,0.106089 5.3727,0.298094 8.11007,0.206087 2.04719,-0.06886 4.09393,-0.19984 6.13202,-0.412175 0.92783,-0.09659 1.83957,-0.337679 2.76929,-0.412191 0.7889,-0.06325 1.58319,0.03583 2.37368,0 0.63734,-0.02882 5.68837,-0.612311 5.7364,-0.412175 0.064,0.266579 0.0291,0.55126 0,0.824366 -0.21111,1.97954 -1.84001,2.504192 -3.36272,3.297432 -1.05498,0.549577 -2.04295,1.269614 -3.16491,1.648732 -1.34079,0.453053 -2.78103,0.491703 -4.15394,0.82435 -1.46449,0.354846 -2.88399,0.896728 -4.35175,1.236541 -1.54281,0.357214 -7.81223,1.346088 -9.29692,1.648731 -3.89063,0.793085 -7.894604,1.818552 -11.670604,3.091342 -1.071995,0.36136 -2.065682,0.97886 -3.164902,1.23654 -7.391695,0.96266 -2.161104,0.0541 -7.714471,1.44263 -0.65385,0.16351 -1.311543,0.31959 -1.978057,0.41219 -0.326798,0.0453 -0.663853,-0.0564 -0.989037,0 -0.145486,0.0252 -0.522045,0.28512 -0.395623,0.20609 1.120303,-0.70033 3.50931,-1.58475 4.351754,-1.85482 1.497968,-0.4802 3.019606,-0.8823 4.549558,-1.23654 2.032349,-0.47055 4.074896,-0.90252 6.132008,-1.23654 7.033784,-1.142074 12.958134,-1.648717 19.978484,-1.648717 2.66122,0 4.91548,-0.168559 7.51666,0.412176 0.13158,0.02944 3.17279,1.110101 3.56052,1.648731 0.25021,0.34757 0.33663,0.80644 0.39562,1.23654 0.0942,0.68706 0.0812,1.93108 -0.39562,2.47308 -1.75436,1.993981 -5.98854,3.532421 -8.30789,4.121801 -1.35886,0.34531 -2.76806,0.42137 -4.15393,0.61828 -5.87136,0.83416 -10.35202,1.12163 -16.417964,1.23654 -2.98045,0.0564 -5.938229,0.014 -8.901316,-0.2061 -0.710071,-0.0528 -2.396499,0.0793 -2.967094,0 -0.413357,-0.0575 -0.776549,-0.33446 -1.186841,-0.41218 -0.32436,-0.0614 -0.667202,0.0745 -0.989036,0 -0.287847,-0.0667 -0.527488,-0.27479 -0.791232,-0.41217 -4.028006,-2.09835 -4.494204,-3.03701 -7.121043,-6.594901 -1.052061,-1.42495 -1.547715,-2.11594 -2.175862,-3.915709 -0.185349,-0.531008 -0.03783,-1.722168 0.395608,-2.060891 2.51679,-1.966641 8.229728,-2.641859 11.077174,-3.09136 0.720074,-0.113723 1.448596,-0.245969 2.175877,-0.206088 0.542963,0.02975 1.082697,0.189029 1.582449,0.412175 2.363244,1.055239 3.719225,3.857494 5.142986,5.976613 0.330879,0.26166 0.380147,0.69717 0.59341,1.03046 0.0517,0.0808 0.24954,0.12525 0.19781,0.20609 -0.605094,0.94566 -3.292639,0.41217 -3.362706,0.41217 -3.098973,0 -6.201012,0.14332 -9.29692,0 -1.45513,-0.0675 -2.904788,-0.23823 -4.351754,-0.41217 -0.270069,-0.0324 -0.524647,-0.15049 -0.791232,-0.20609 -0.06459,-0.014 -0.151183,0.0486 -0.197804,0 -0.452218,-0.47117 0.682559,-0.49789 1.780268,-0.61828 1.977355,-0.21685 2.995608,-0.40677 5.142971,0 5.184553,0.98213 10.032021,2.96522 14.637697,5.56444 1.949354,1.100121 5.453044,2.209451 3.758344,5.152251 -0.50572,0.87816 -2.742114,1.75995 -3.560524,2.06091 -1.28097,0.47103 -3.12025,1.19664 -4.54956,0.82435 -0.425663,-0.11092 -3.020758,-4.68993 -3.164914,-4.94616 -1.685904,-2.996401 -1.97396,-3.701071 -3.362717,-6.594881 -0.17252,-0.35951 -2.410404,-4.908265 -2.76929,-5.976621 -0.200824,-0.597792 -0.203381,-1.253957 -0.395608,-1.854803 -0.118572,-0.370628 -0.914514,-2.253566 -1.186841,-2.67917 -0.03663,-0.05717 -0.136066,-0.02415 -0.197819,0 -0.470176,0.183702 -1.048726,0.229393 -1.384645,0.618263 -1.639208,1.897629 -2.602885,3.755392 -2.769289,6.182704 -0.03753,0.548176 -0.166809,1.127347 0,1.648717 0.528818,1.65289 2.03845,1.70136 3.560521,1.85482 1.31422,0.13257 2.63608,0.17619 3.95613,0.20609 5.404114,0.12244 10.816182,-0.1279 16.220166,0 1.18836,0.0282 2.37333,0.14425 3.56052,0.20608 0.13173,0.006 0.27766,-0.0614 0.39561,0 0.11304,0.0589 -0.19781,0.27574 -0.19781,0.41219"
       id="path57" /><path
       style="font-variation-settings:normal;vector-effect:none;fill:#0089ad;fill-opacity:1;stroke:#0089ad;stroke-width:1.52622;stroke-linecap:butt;stroke-linejoin:miter;stroke-miterlimit:4;stroke-dasharray:none;stroke-dashoffset:0;stroke-opacity:1;-inkscape-stroke:none;stop-color:#000000"
       d="m 115.90789,96.467509 c -8.56243,0 1.1455,0.15345 -6.72544,-0.41217 -3.21031,-0.23067 -6.27937,0.14612 -9.494725,-0.41218 -2.01682,-0.35022 -1.64857,-0.52462 -3.75833,-0.82436 -0.78668,-0.1117 -1.590505,-0.0701 -2.373678,-0.20609 -0.80448,-0.13974 -1.570801,-0.4689 -2.373681,-0.61828 -1.692588,-0.3149 -4.39377,-0.54861 -6.132007,-0.61826 -1.054184,-0.0422 -2.109937,0 -3.164899,0 -0.197819,0 -0.395623,0 -0.593427,0 -0.06594,0 -0.197805,0.0687 -0.197805,0 0,-1.106913 1.018343,-0.726238 1.780254,-1.236542 0.470624,-0.315214 0.791232,-0.824365 1.18684,-1.236541"
       id="path58" /><path
       style="font-variation-settings:normal;vector-effect:none;fill:#0089ad;fill-opacity:1;stroke:#0089ad;stroke-width:1.52622;stroke-linecap:butt;stroke-linejoin:miter;stroke-miterlimit:4;stroke-dasharray:none;stroke-dashoffset:0;stroke-opacity:1;-inkscape-stroke:none;stop-color:#000000"
       d="m 87.225905,85.956923 c 0.527489,1.442628 0.991653,2.912145 1.58245,4.327885 3.146282,7.539481 1.171649,2.790182 3.956145,7.625331 0.303412,0.52688 0.508827,1.10931 0.791217,1.64873 0.133973,0.25586 0.525575,0.901031 0.593429,0.618271 0.26648,-1.110591 -1.797256,-3.072791 -2.571487,-3.709631 -2.063585,-1.69735 -4.281865,-3.23918 -6.329826,-4.94616 -0.291256,-0.242759 -0.457616,-0.650557 -0.791217,-0.82435 -0.486324,-0.253353 -1.059656,-0.256562 -1.582464,-0.412191 -1.419305,-0.422488 -2.660841,-0.82435 -4.153935,-0.82435 -0.527488,0 -1.054976,0 -1.582449,0 -0.06594,0 -0.263744,0 -0.197819,0 2.153508,0 1.427289,-0.0405 5.538594,1.030438 0.748708,0.195027 1.443722,0.570094 2.175877,0.824366 1.183775,0.411115 1.802818,0.526972 2.76929,1.030453 1.676948,0.873578 -1.233537,-0.565794 0.989036,0.206087 0.225542,0.07836 0.380791,0.301413 0.593428,0.412191 0.05891,0.03069 0.263729,0 0.197805,0 -2.470064,0 2.056139,-0.01823 -3.758341,0.206088 -2.239784,0.08646 -4.488164,0.07665 -6.72542,0.206088 -0.465525,0.0269 -0.921272,0.15251 -1.384646,0.20609 -0.13113,0.0156 -0.30238,0.0972 -0.395623,0 -0.662133,-0.689864 1.569485,-2.047388 1.978073,-2.473085 0.04665,-0.0486 -0.04665,-0.157514 0,-0.206088 0.189565,-0.197503 0.705002,0.322335 0.791232,0.412176 0.02034,0.02119 0.173237,0.785964 0.197804,0.824365 0.390375,0.610084 2.281141,1.030454 2.967094,1.030454 0.197804,0 0.453549,0.145658 0.593428,0 0.223342,-0.232711 -0.848515,-1.954599 -0.593428,-2.060907 1.122844,-0.467946 2.401238,-0.325902 3.560521,-0.412175 0.400065,-0.02976 0.78742,-0.168263 1.186841,-0.206103 0.459649,-0.04346 0.971826,0.215061 1.38466,0 0.08343,-0.04346 0.131879,-0.137402 0.197804,-0.206088 0.329669,-0.0687 0.67423,-0.08303 0.989036,-0.206087 0.53806,-0.210216 0.879944,-0.898987 1.384645,-1.030454 1.054962,-0.274788 0.263744,0.0916 0.791217,0 0.570193,-0.09908 1.626215,-0.373992 2.175877,-0.412175 1.315792,-0.09145 2.637422,0 3.956132,0 6.208135,0 12.616995,-0.279711 18.791645,0 6.19716,0.280724 -2.06514,0.206088 4.54956,0.206088 1.51653,0 3.04138,0.165412 4.54956,0 0.60455,-0.06636 1.1777,-0.328472 1.78025,-0.412175 0.39216,-0.05453 0.79762,0.07369 1.18684,0 2.31057,-0.437693 0.39993,-0.412175 1.18684,-0.412175 0.14743,0 0.51357,-0.113879 0.39563,-0.206104 -0.28407,-0.221962 -0.6367,-0.366296 -0.98904,-0.412175 -1.77136,-0.230686 -3.55829,-0.310884 -5.34079,-0.412175 -4.9444,-0.280989 -9.88694,-0.206087 -14.8355,-0.206087 -5.00098,0 -1.46077,-0.136312 -4.74736,0.206087 -0.13128,0.01402 -0.52749,0 -0.39561,0 2.22553,0 5.54271,-0.623232 7.71446,-0.824366 3.66118,-0.339065 7.21373,-0.412175 10.87937,-0.412175 0.0659,0 -0.13188,0 -0.19781,0 -0.95118,0 0.26669,-0.0511 -1.38464,0.412175 -2.22385,0.623793 -4.46091,1.211803 -6.72544,1.648716 -0.91687,0.17691 -1.85682,0.212039 -2.76929,0.412191 -0.34746,0.07618 -0.65217,0.295197 -0.98903,0.412175 -0.0625,0.02165 -0.25841,0.02711 -0.19781,0 3.53694,-1.579314 7.54787,-1.847061 11.27498,-2.679169 0.7351,-0.164119 1.45734,-0.38792 2.17588,-0.618278 0.14085,-0.04518 0.24817,-0.206088 0.39562,-0.206088 0.13188,0 0.13188,0.412191 0,0.412191 -0.55654,0 -1.38466,-1.139565 -1.38466,-1.648732"
       id="path59" /><path
       style="font-variation-settings:normal;vector-effect:none;fill:#0089ad;fill-opacity:1;stroke:#0089ad;stroke-width:1.52622;stroke-linecap:butt;stroke-linejoin:miter;stroke-miterlimit:4;stroke-dasharray:none;stroke-dashoffset:0;stroke-opacity:1;-inkscape-stroke:none;stop-color:#000000"
       d="m 126.39165,89.460458 c -0.22943,-5.444425 0.8462,3.557047 0.59341,2.679169 -0.54064,-1.877657 0.15183,-3.293459 -2.17586,-3.09136 -0.12919,0.0109 -1.92679,1.389195 -2.17588,1.648732 -0.1401,0.14597 -0.63499,0.818165 -0.59342,0.82435 1.10858,0.165007 2.09833,-0.112944 3.16491,-0.412175 1.1282,-0.316461 2.27087,-0.597091 3.36272,-1.030453 1.66157,-0.659484 0.29803,-0.618263 0.98903,-0.618263"
       id="path60" /><path
       style="font-variation-settings:normal;vector-effect:none;fill:#0089ad;fill-opacity:1;stroke:#0089ad;stroke-width:1.52622;stroke-linecap:butt;stroke-linejoin:miter;stroke-miterlimit:4;stroke-dasharray:none;stroke-dashoffset:0;stroke-opacity:1;-inkscape-stroke:none;stop-color:#000000"
       d="m 127.77629,101.61976 c -0.13188,0.4809 -0.12933,1.02652 -0.3956,1.44265 -1.40585,2.19706 -5.14525,1.64871 -7.31885,1.64871 -0.44489,0 -1.33593,-0.15438 -1.78027,0 -0.3423,0.11887 -0.80547,1.01563 -0.39561,1.44263 0.23773,0.24769 0.65935,0.13741 0.98904,0.20609 0.65935,0.1374 1.30948,0.33756 1.97805,0.41219 1.18191,0.13195 2.37449,0.12369 3.56053,0.20609 1.9822,0.13771 4.14158,0.46531 6.132,0.20609 0.0655,-0.009 0,-0.13741 0,-0.20609 0,-0.20609 0.0389,-0.41618 0,-0.61828 -0.17987,-0.93706 -0.89115,-1.44263 -1.78025,-1.44263 -0.39561,0 -0.80645,-0.11325 -1.18684,0 -1.56699,0.46647 0.33383,0.39194 -1.18684,0.61828 -2.97885,0.44336 -3.47703,-0.70899 -4.74736,-3.09136 -0.59093,-1.1082 -0.48947,-1.10713 -0.79124,-2.679171 -0.0259,-0.13475 0,-0.54958 0,-0.41217 0,0.876771 -0.21568,3.859811 0,4.533971 0.12366,0.38628 0.36626,0.72597 0.79124,0.82436 0.21876,0.0506 1.82547,0.15898 2.17587,-0.20608 0.0867,-0.0904 0.98897,-1.64872 0.39561,-1.64872"
       id="path61" /><path
       style="font-variation-settings:normal;vector-effect:none;fill:#0089ad;fill-opacity:1;stroke:#0089ad;stroke-width:1.52622;stroke-linecap:butt;stroke-linejoin:miter;stroke-miterlimit:4;stroke-dasharray:none;stroke-dashoffset:0;stroke-opacity:1;-inkscape-stroke:none;stop-color:#000000"
       d="m 122.63332,81.010759 c -0.46155,0.274789 -0.98953,0.453848 -1.38464,0.824366 -0.28579,0.267965 -0.38966,0.690765 -0.59343,1.030438 -1.52437,2.541144 0.79757,3.290842 2.37368,1.648731 0.0798,-0.08319 0.93324,-0.676417 0.79123,-0.824365 -0.25918,-0.270022 -1.55671,0.237493 -1.78026,0.412175 -0.11798,0.09222 -0.0752,0.326976 -0.19781,0.41219 -0.50838,0.353118 -0.66689,-0.465173 -1.38464,1.030438"
       id="path62" /><path
       style="font-variation-settings:normal;vector-effect:none;fill:#0089ad;fill-opacity:1;stroke:#0089ad;stroke-width:1.52622;stroke-linecap:butt;stroke-linejoin:miter;stroke-miterlimit:4;stroke-dasharray:none;stroke-dashoffset:0;stroke-opacity:1;-inkscape-stroke:none;stop-color:#000000"
       d="m 97.709665,90.078721 c -1.25278,0.412175 -2.570359,0.652068 -3.758325,1.236541 -1.207265,0.593975 -2.258696,1.484815 -3.362717,2.266997 -0.13502,0.0956 -1.754416,1.589 -2.175877,1.44263 -0.125151,-0.0435 0,-0.27479 0,-0.41218 0,-0.54958 0,-1.09915 0,-1.648731 0,-0.824351 0.22735,-1.683488 0,-2.473082 -0.110498,-0.383667 -0.441976,-0.662256 -0.593413,-1.030438 -0.05188,-0.126341 0.08239,-0.304902 0,-0.412191 -0.664644,-0.86557 -0.993268,-0.618262 -1.978071,-0.618262 -1.801412,0 -3.130808,0.869356 -4.549559,1.854803 -0.462745,0.321415 -0.907801,0.496813 -0.791231,0.618278 0.06594,0.0687 0.135915,-0.133507 0.197818,-0.206087 1.722791,-2.019328 0.831723,-1.072655 1.780253,-2.060907 0.06594,-0.0687 0.168319,-0.298265 0.197806,-0.206087 0.341853,1.068511 -0.197806,3.189675 -0.197806,4.533973 0,0.480891 0,0.961771 0,1.442641 0,0.0687 0.04665,0.25466 0,0.20609 -1.018805,-1.06147 -2.175877,-3.838036 -2.175877,-5.358354"
       id="path63" /><path
       style="font-variation-settings:normal;vector-effect:none;fill:#0089ad;fill-opacity:1;stroke:#0089ad;stroke-width:1.52622;stroke-linecap:butt;stroke-linejoin:miter;stroke-miterlimit:4;stroke-dasharray:none;stroke-dashoffset:0;stroke-opacity:1;-inkscape-stroke:none;stop-color:#000000"
       d="m 108.39124,104.09285 c -0.46155,0 -0.92938,-0.079 -1.38465,0 -3.86417,0.67101 -7.661794,1.9777 -11.472804,2.88527 -0.78197,0.18622 -1.585271,0.25817 -2.373677,0.41217 -0.267198,0.0522 -0.524647,0.15049 -0.791232,0.20609 -0.06459,0.014 -0.263744,0 -0.197804,0 1.052569,0 2.298531,-0.15838 3.362713,0 3.12414,0.465 1.15096,0.37473 3.95613,0.61828 2.739734,0.23787 5.356124,0.20609 8.110084,0.20609 4.09075,0 0.16113,0.0972 3.36272,-0.20609 0.26265,-0.0249 0.53535,0.0667 0.79123,0 0.28607,-0.0745 0.51148,-0.31503 0.79122,-0.41219 0.18765,-0.0651 0.45355,0.14581 0.59343,0 0.0466,-0.0486 0.0589,-0.17537 0,-0.20609 -0.86348,-0.44981 -4.0041,0.45486 -4.94517,0.61828 -0.65364,0.11357 -1.32522,0.0879 -1.97807,0.20609 -0.86668,0.15703 -1.70285,0.47346 -2.57149,0.61826 -3.12748,0.52136 -6.354495,0.35698 -9.494725,0.82437 -0.729778,0.10858 -1.443752,0.32244 -2.175877,0.41217 -0.392902,0.0481 -0.798918,-0.0808 -1.186841,0 -0.289148,0.0603 -0.505164,0.33768 -0.791232,0.41219 -0.31983,0.0833 -0.659352,0 -0.989036,0 -0.197804,0 -0.593413,0.20609 -0.593413,0 0,-0.7652 2.247618,-0.92913 3.560523,-1.03045 4.019047,-0.31017 8.039721,-0.20609 12.066211,-0.20609 0.79123,0 1.58245,0 2.37368,0 0.19781,0 0.59343,-0.20609 0.59343,0 0,0.27688 -2.3565,0.88709 -2.7693,1.03045 -0.73216,0.25428 -1.42716,0.62934 -2.17588,0.82435 -0.31983,0.0834 -0.66575,-0.0673 -0.98902,0 -0.34818,0.0726 -0.64648,0.31485 -0.98904,0.4122 -1.043255,0.29642 -1.658915,0.20608 -2.769305,0.20608 -0.66598,0 -2.930837,0.26242 -3.560509,0 -1.130022,-0.47093 -1.859052,-1.88887 -2.769305,-2.67917 -1.265295,-1.09857 -2.412168,-2.29564 -3.758326,-3.29744 -0.419053,-0.31185 -0.745253,-0.75441 -1.18684,-1.03046 -0.1788,-0.1117 -0.414628,-0.0943 -0.593428,-0.20609 -0.239865,-0.14986 -0.343215,-0.48793 -0.593413,-0.61827 -1.355607,-0.70619 -2.705966,-0.49817 -3.95613,0.61827 -0.353996,0.31612 -0.730421,0.62627 -0.989036,1.03046 -0.0788,0.12322 0.158076,0.41217 -0.197804,0.41217 -0.564301,0 -0.722616,-2.35742 -0.791232,-2.67917 -0.03962,-0.18582 -0.172745,-1.21043 -0.197805,-1.23654 -0.04665,-0.0486 -0.151183,0.0486 -0.197804,0 -0.04665,-0.0486 -0.06594,-0.20608 0,-0.20608 0.637118,0 0.593413,1.81461 0.593413,2.26699 0,0.20609 0.139804,0.76398 0,0.61826 -0.719207,-0.74932 -1.189981,-2.28332 -1.384645,-3.29745 -0.105862,-0.55163 0,-1.28126 0,-1.854801 0,-0.1374 0,-0.54958 0,-0.41217 0,1.448171 0.477936,2.884051 0.593428,4.327881 0.09001,1.12594 -0.156506,0.95348 0.197804,2.06091 0.07521,0.23497 0.197804,0.48087 0.395609,0.61826 0.10975,0.0762 0.267332,0.0318 0.395608,0 1.260212,-0.31261 2.485091,-0.78171 3.758341,-1.03045 0.844956,-0.16506 1.718426,-0.095 2.571485,-0.20609 0.731483,-0.0952 1.447714,-0.29239 2.175877,-0.41218 0.525081,-0.0865 1.069585,-0.0603 1.582449,-0.20608 0.151811,-0.0431 1.060897,-0.7495 1.384645,-0.41219 0.807336,0.84114 1.760621,2.37074 1.978073,3.50353 0.160019,0.83365 0.337429,1.76389 0.791217,2.47308 0.779405,1.21807 2.983258,0.82437 4.153948,0.82437 1.21138,0 2.553275,0.15694 3.758335,0 1.31099,-0.17074 0.28982,-0.18404 1.38464,-0.41218 1.08829,-0.22677 0.81027,0.0109 2.57149,-0.41219 0.46772,-0.11247 0.91396,-0.31409 1.38464,-0.41217 0.25863,-0.0539 0.55533,0.12291 0.79123,0 0.16681,-0.0869 0.22882,-0.32528 0.39561,-0.41218 0.11798,-0.0614 0.27052,0.0435 0.39563,0 0.0885,-0.0307 0.1093,-0.17538 0.1978,-0.2061 0.52921,-0.18378 1.2488,-0.28604 1.78025,-0.61826 0.15993,-0.10002 0.2357,-0.31221 0.39563,-0.41218 0.43438,-0.27155 1.00683,-0.43073 1.38464,-0.82436 0.0466,-0.0486 -0.0466,-0.15752 0,-0.20609 0.0933,-0.0972 0.27767,0.0614 0.39561,0 0.62954,-0.32796 1.3202,-1.00807 1.97807,-1.23654 0.12515,-0.0435 0.27767,0.0614 0.39561,0 0.6457,-0.33637 -0.95977,-0.11061 0.19781,-0.41219 0.19191,-0.05 0.40153,0.05 0.59342,0 0.59578,-0.15516 2.37369,-1.66237 2.37369,-0.20609"
       id="path64" /><path
       style="font-variation-settings:normal;vector-effect:none;fill:#0089ad;fill-opacity:1;stroke:#0089ad;stroke-width:1.52622;stroke-linecap:butt;stroke-linejoin:miter;stroke-miterlimit:4;stroke-dasharray:none;stroke-dashoffset:0;stroke-opacity:1;-inkscape-stroke:none;stop-color:#000000"
       d="m 126.19384,102.65022 c -0.17603,0.0368 -1.53584,0.30305 -1.78026,0.41219 -0.71594,0.31967 -1.51291,0.77604 -2.17588,1.23654 -0.2182,0.15158 -0.35974,0.49653 -0.59341,0.61826 -0.0589,0.0307 -0.15119,-0.0486 -0.19781,0 -0.0466,0.0486 0.0466,0.15752 0,0.20609 -0.0466,0.0486 -0.13876,-0.0307 -0.1978,0 -0.27281,0.14208 -0.53368,0.43939 -0.79123,0.61828 -0.40204,0.27924 -0.93805,0.43214 -1.38465,0.61826 -0.73517,0.3064 -0.66795,0.0195 -1.38464,0.2061 -0.0905,0.0235 -0.10736,0.18252 -0.19782,0.20609 -0.36619,0.0953 -0.82299,-0.10827 -1.18684,0 -0.60145,0.17903 -1.16325,0.51113 -1.78026,0.61826 -0.39022,0.0678 -0.80304,-0.10001 -1.18684,0 -0.0905,0.0235 -0.1093,0.17537 -0.1978,0.20609 -0.39012,0.13553 -0.98443,-0.0695 -1.38465,0 -0.65504,0.11372 -1.32038,0.32653 -1.97807,0.41219 -0.71968,0.0938 -1.45419,-0.0752 -2.17588,0 -0.73866,0.077 -1.48156,0.23133 -2.17587,0.41218 -0.69971,0.18225 -1.66083,0 -2.37368,0"
       id="path65" /><path
       style="font-variation-settings:normal;vector-effect:none;fill:#0089ad;fill-opacity:1;stroke:#0089ad;stroke-width:1.52622;stroke-linecap:butt;stroke-linejoin:miter;stroke-miterlimit:4;stroke-dasharray:none;stroke-dashoffset:0;stroke-opacity:1;-inkscape-stroke:none;stop-color:#000000"
       d="m 109.18245,109.65729 c -1.42376,0.9024 -2.66775,0.48922 -4.15393,0.61826 -0.99273,0.0862 -1.78778,0.2061 -2.76929,0.2061 -0.40723,0 -0.99508,-0.13522 -1.38466,0 -0.46512,0.16154 -0.919515,0.45673 -1.384654,0.61827 -0.41467,0.14394 -0.96442,0.0601 -1.38464,0.20608 -0.35936,0.12479 -0.82746,0.49347 -1.186841,0.61828 -0.353499,0.12276 -1.01909,0 -1.384649,0 -2.993645,0 -4.069599,-0.70693 -6.329807,-2.47308 -0.772048,-0.60329 -1.384346,-1.08158 -1.978073,-1.85482 -0.469039,-0.61085 -1.32023,-1.60397 -1.978072,-2.06089 -0.05487,-0.0382 -0.151183,0.0486 -0.197804,0 -0.0933,-0.0972 0,-0.27479 0,-0.41219"
       id="path66" /><path
       style="font-variation-settings:normal;vector-effect:none;fill:#0089ad;fill-opacity:1;stroke:#0089ad;stroke-width:1.52622;stroke-linecap:butt;stroke-linejoin:miter;stroke-miterlimit:4;stroke-dasharray:none;stroke-dashoffset:0;stroke-opacity:1;-inkscape-stroke:none;stop-color:#000000"
       d="m 100.47896,114.39736 c -0.0659,-0.61827 0.0239,-1.27723 -0.1978,-1.85481 -0.19126,-0.49816 -0.703384,-0.79011 -0.989045,-1.23655 -1.13593,-1.77524 -0.11797,-0.65783 -0.98904,-2.47308 -0.14743,-0.30722 -0.47098,-0.50544 -0.59341,-0.82435 -0.14892,-0.38798 -0.0825,-0.8363 -0.1978,-1.23654 -0.0848,-0.29426 -0.2861,-0.53912 -0.39563,-0.82436 -0.0734,-0.19135 0.0625,-0.42276 0,-0.61827 -0.0656,-0.20524 -0.32995,-0.41304 -0.39561,-0.61828 -0.0417,-0.13039 0,-0.27478 0,-0.41217 -0.13187,-0.2061 -0.30731,-0.38831 -0.3956,-0.61828 -0.049,-0.12759 0.0589,-0.28929 0,-0.41217 -0.0295,-0.0614 -0.13188,0 -0.19781,0 0,-0.13741 0,-0.27479 0,-0.41218"
       id="path67" /><path
       style="font-variation-settings:normal;vector-effect:none;fill:#0089ad;fill-opacity:1;stroke:#0089ad;stroke-width:1.52622;stroke-linecap:butt;stroke-linejoin:miter;stroke-miterlimit:4;stroke-dasharray:none;stroke-dashoffset:0;stroke-opacity:1;-inkscape-stroke:none;stop-color:#000000"
       d="m 104.43509,113.573 c -0.006,-1.20995 -0.73867,-2.0641 -1.18684,-3.09135 -0.17255,-0.39553 -0.20911,-0.84793 -0.39561,-1.23654 -0.1888,-0.39343 -0.65772,-0.61315 -0.79123,-1.03045 -0.11319,-0.3539 0.17331,-0.42495 -0.1978,-0.61828 -0.11798,-0.0614 -0.26375,0 -0.39561,0"
       id="path68" /><path
       style="font-variation-settings:normal;vector-effect:none;fill:#0089ad;fill-opacity:1;stroke:#0089ad;stroke-width:1.52622;stroke-linecap:butt;stroke-linejoin:miter;stroke-miterlimit:4;stroke-dasharray:none;stroke-dashoffset:0;stroke-opacity:1;-inkscape-stroke:none;stop-color:#000000"
       d="m 83.269775,100.79541 c 1.024399,1.98043 1.362052,4.21023 1.780254,6.3888 0.04291,0.22331 0.261904,1.57906 0.395608,1.64871 0.117974,0.0614 0.263744,0 0.395624,0"
       id="path69" /><path
       style="font-variation-settings:normal;vector-effect:none;fill:#0089ad;fill-opacity:1;stroke:#0089ad;stroke-width:1.52622;stroke-linecap:butt;stroke-linejoin:miter;stroke-miterlimit:4;stroke-dasharray:none;stroke-dashoffset:0;stroke-opacity:1;-inkscape-stroke:none;stop-color:#000000"
       d="m 77.928985,103.47458 c 3.611689,0 -0.849576,-0.0422 4.15395,0.20609 0.933219,0.0463 2.148155,-0.22053 2.967094,0.20609 0.181027,0.0943 0.65702,-0.1399 0.791232,0 0.09809,0.10219 0,0.88568 0,1.03045"
       id="path70" /><path
       style="font-variation-settings:normal;vector-effect:none;fill:#0089ad;fill-opacity:1;stroke:#0089ad;stroke-width:1.52622;stroke-linecap:butt;stroke-linejoin:miter;stroke-miterlimit:4;stroke-dasharray:none;stroke-dashoffset:0;stroke-opacity:1;-inkscape-stroke:none;stop-color:#000000"
       d="m 90.588623,106.77203 c -0.05622,0.0469 -1.267553,1.10529 -1.582449,1.23654 -0.620372,0.25854 -1.314638,0.10734 -1.978072,0.20609 -1.196949,0.17816 -1.93175,0.3212 -3.164913,0 -0.164161,-0.0427 -0.443576,0.0781 -0.593413,0 -0.82323,-0.42884 0.211456,0.014 -0.197804,-0.41219 -0.139804,-0.14566 -0.405777,0.0651 -0.593429,0 -0.539465,-0.18735 -0.933982,-1.41571 -1.18684,-1.8548 0.193946,-0.77248 -0.599334,-0.49113 -0.791231,-0.82437 -0.139805,-0.24288 -0.09689,-0.56137 -0.197806,-0.82435 -0.03469,-0.0902 -0.17518,-0.11185 -0.197804,-0.2061 -0.855841,-3.56672 0.384529,-0.32645 -0.593428,-1.85481 -0.18967,-0.29642 -0.04635,-0.82436 -0.197804,-0.82436 -0.366436,0 1.264114,2.89599 1.38466,3.09136 0.932113,1.51067 1.479308,2.42834 2.76929,3.50353 0.695238,0.57949 0.128889,0.42919 1.18684,1.03044 0.440839,0.25053 0.935507,0.38431 1.384645,0.61828 0.343873,0.17914 0.624289,0.49159 0.989036,0.61826 0.250197,0.0869 0.535353,-0.0667 0.791232,0 0.670074,0.17454 1.466958,0.77316 1.582449,0.41219 0.163982,-0.51255 -0.820389,-1.19664 -0.989036,-1.44263 -0.358362,-0.52272 -0.646987,-1.11417 -0.989036,-1.64873 -0.254788,-0.39818 -0.696031,-0.51909 -0.989037,-0.82435 -0.04665,-0.0486 0.04665,-0.15751 0,-0.2061 -0.329997,-0.3438 -0.65847,-0.44606 -0.989036,-0.61826 -0.08343,-0.0435 -0.131879,-0.13741 -0.197804,-0.20609 -0.197804,-0.1374 -0.372687,-0.3202 -0.593413,-0.41219 -0.320368,-0.13351 -0.659846,-0.0918 -0.989036,-0.20609 -0.478639,-0.16622 -0.95197,-0.59896 -1.384645,-0.82435 -0.116778,-0.0608 -0.460472,0 -0.593428,0 -1.228871,0 -1.582449,0.71974 -1.582449,1.8548 0,0.20609 -0.139804,0.47255 0,0.61828 0.14743,0.15361 0.399825,0.12541 0.593413,0.20609 0.466243,0.19429 0.893655,0.50864 1.38466,0.61826 0.451291,0.10079 0.924113,-0.0319 1.384645,0 3.335115,0.23167 0.471715,0.20609 2.175876,0.20609 0.108853,0 0.653222,-0.26306 0.395609,-0.41218 -0.567665,-0.32858 -1.190639,-0.54083 -1.780268,-0.82436 -0.267722,-0.12868 -0.527473,-0.27479 -0.791217,-0.41218 -0.329684,-0.0687 -0.680017,-0.0681 -0.989037,-0.20608 -0.276932,-0.1237 -0.356044,-0.4534 -0.593428,-0.61828 -1.200925,-0.83414 -2.192339,-2.30703 -2.769289,-3.70963 -0.06355,-0.15438 -0.776056,-1.45842 -0.593413,-1.648711 0.262473,-0.27348 2.731535,4.537121 2.967094,4.946161 0.754629,1.31039 1.698614,3.261 3.164913,3.91571 0.181805,0.0812 0.399451,-0.0405 0.593413,0 0.943536,0.19662 1.819099,0.83245 2.769304,1.03046 0.204459,0.0427 0.395609,0.1374 0.593413,0.20608 0.263744,0.13741 0.50337,0.34555 0.791232,0.41219 0.63193,0.14629 1.549435,-0.21755 2.175877,0 0.08852,0.0307 0.109302,0.17537 0.197804,0.20609 0.315509,0.10952 0.649679,0.0882 0.989037,0.20609 0.464,0.16114 1.106382,0.008 1.582449,0.20609 0.273777,0.11403 0.511486,0.31502 0.791236,0.41217 0.25019,0.0869 0.54634,-0.10204 0.79121,0 0.22073,0.0919 0.36484,0.34415 0.59343,0.41219 0.25359,0.0756 0.54881,-0.10827 0.79122,0 0.25712,0.11482 0.34321,0.48792 0.59343,0.61827 0.17691,0.0922 0.39713,-0.0256 0.59341,0 0.33361,0.0435 0.66577,0.10982 0.98903,0.20608 0.14175,0.0422 0.25575,0.15753 0.39563,0.20611 0.241645,0.084 1.016675,-0.1773 1.186845,0 0.14743,0.1536 -0.0504,0.46466 -0.19782,0.61826 -0.17603,0.18342 -2.943785,0.25468 -2.967095,0.20609 -0.0849,-0.17701 -0.0721,-2.02334 0,-2.06089 0.52724,-0.27467 1.85094,0 2.571485,0 0.3192,0 1.80527,-0.18005 1.97807,0 0.13278,0.13849 -4e-4,1.44206 0.19781,1.64871 0.21885,0.22802 0.71065,-0.24428 0.79123,-0.41217 0.17935,-0.37376 -0.78577,-0.20611 -1.18684,-0.20611 -0.9231,0 -1.85694,0.14628 -2.769315,0 -0.23496,-0.0377 -0.37268,-0.32018 -0.59341,-0.41217 -0.18366,-0.0765 -0.4165,0.0922 -0.59343,0 -0.15907,-0.0829 -0.36404,-1.16727 -0.1978,-1.23654 0.55917,-0.23304 0.87215,-0.20609 1.38464,-0.20609"
       id="path71" /><path
       style="font-variation-settings:normal;vector-effect:none;fill:#0089ad;fill-opacity:1;stroke:#0089ad;stroke-width:1.52622;stroke-linecap:butt;stroke-linejoin:miter;stroke-miterlimit:4;stroke-dasharray:none;stroke-dashoffset:0;stroke-opacity:1;-inkscape-stroke:none;stop-color:#000000"
       d="m 96.918435,113.77909 c -0.0659,-0.27479 0.0659,-0.89305 -0.19781,-0.82435 -0.26374,0.0687 0.19781,1.10759 0.19781,0.82435 0,-0.74684 -0.19781,-1.50761 -0.19781,-2.26698"
       id="path72" /><path
       style="font-variation-settings:normal;vector-effect:none;fill:#0089ad;fill-opacity:1;stroke:#0089ad;stroke-width:1.52622;stroke-linecap:butt;stroke-linejoin:miter;stroke-miterlimit:4;stroke-dasharray:none;stroke-dashoffset:0;stroke-opacity:1;-inkscape-stroke:none;stop-color:#000000"
       d="M 106.01756,106.77203 V 95.849249"
       id="path73" /><path
       style="font-variation-settings:normal;vector-effect:none;fill:#0089ad;fill-opacity:1;stroke:#0089ad;stroke-width:1.52622;stroke-linecap:butt;stroke-linejoin:miter;stroke-miterlimit:4;stroke-dasharray:none;stroke-dashoffset:0;stroke-opacity:1;-inkscape-stroke:none;stop-color:#000000"
       d="m 83.863188,76.682858 c 0.263744,0.206088 0.568457,0.365082 0.791232,0.618279 1.178273,1.578379 1.483181,2.060486 2.76929,3.503535 0.380701,0.427146 0.772855,0.844431 1.18684,1.236541 0.312399,0.295881 0.725293,0.480876 0.989037,0.82435 0.276304,0.359862 0.31334,0.879887 0.593427,1.236541 0.72459,0.922697 1.056053,0.855787 1.780254,1.442628 0.203291,0.164743 2.927587,2.225571 2.967107,2.060907 0.25308,-1.054756 -0.215566,-2.265701 -0.395622,-3.297448 -0.333317,-1.910029 -0.607617,-3.857602 -0.791217,-5.770513 -0.08822,-0.918491 -0.197819,-1.746331 -0.197819,-2.67917 0,-0.274788 0,-1.099154 0,-0.824366 0,1.889045 0.528265,3.558091 0.989036,5.358339 0.121712,0.475299 0.077,1.412157 0.395622,1.854819 0.11184,0.155473 0.29216,0.250502 0.39561,0.412175 0.0366,0.05717 0,0.274789 0,0.206088 0,-1.321179 -0.5256,-2.502525 -0.989036,-3.709623 -0.162203,-0.422472 -2.334013,-4.533973 -2.373681,-4.533973 -0.423644,0 -0.737972,3.761157 -0.791232,4.121798 -0.178591,1.209512 -0.276259,2.060907 -0.197805,2.060907 0.233017,0 -0.271339,-0.45969 -0.395608,-1.236541 -0.07596,-0.474333 0,-0.961752 0,-1.442629 -0.131879,-0.480891 -0.295039,-0.95362 -0.395608,-1.442644 -0.09764,-0.474972 -0.139954,-0.960615 -0.197819,-1.442628 -0.0075,-0.06823 0,-0.274789 0,-0.206088 0,1.648716 -0.121413,3.302293 0,4.946164 0.0308,0.416631 0.10048,0.831142 0.197819,1.236541 0.03574,0.149086 0.0936,0.520804 0.197805,0.412175 0.599318,-0.624416 0.197804,-2.282697 0.197804,-3.091344 0,-0.34349 0,-0.686964 0,-1.030454 0,-0.137402 0,-0.549577 0,-0.412175 0,2.603707 -0.804719,4.854827 2.175877,2.266994 0.253262,-0.219905 0.335978,-0.609788 0.593413,-0.824365 0.103021,-0.08584 0.270517,0.04346 0.395623,0 0.08852,-0.03069 0.168303,-0.298266 0.197804,-0.206088 0.241121,0.753686 0.07043,2.355464 0.791215,1.854804 1.34535,-0.934459 -1.252479,0.137246 0.59343,-0.824366 0.11797,-0.06138 0.26374,0 0.39561,0 0.13188,0 0.32572,-0.116527 0.39562,0 1.03564,1.726452 0.38135,2.151573 2.17586,3.709622 0.37335,0.324157 0.40844,0.743794 0.98904,0.206104 0.45434,-0.42079 0.756994,-0.994795 1.186844,-1.442629 5.36012,-5.5846 -2.041084,2.637606 2.37368,-2.473097 0.24953,-0.288841 0.52749,-0.549562 0.79123,-0.82435 0.16811,-0.175149 0.63335,-0.618279 0.39561,-0.618279 -0.0598,0 -0.007,0.73317 0.19781,0.412191 0.44193,-0.690656 0.59375,-1.546303 0.98903,-2.266994 0.1105,-0.201508 1.29176,-2.036714 1.38465,-2.060907 0.24659,-0.06418 0.39562,2.119139 0.39562,2.266994 0,0.137402 -0.13188,0.412175 0,0.412175 0.0659,0 0,-0.137402 0,-0.206087 0,-0.206088 0,-0.412175 0,-0.618263 0,-0.0687 0.0466,-0.254677 0,-0.206087 -0.23312,0.242868 -0.3603,0.581466 -0.59343,0.82435 -0.92016,0.958699 -2.28532,2.299584 -3.56052,2.679169 -0.19019,0.05655 -0.40151,-0.05001 -0.59341,0 -0.0905,0.02352 -0.11439,0.249536 -0.19782,0.206088 -0.58372,-0.304076 -1.38968,-4.71903 -1.18684,-5.564427 0.23501,-0.979371 0.19782,1.738744 0.19782,2.473082 0,0.206088 -0.19782,0.618263 0,0.618263 0.0384,0 1.36595,-2.434151 1.78025,-3.297432 0.14743,-0.307223 0.53923,-1.163182 0.59343,-0.824366 0.1084,0.677617 0.15991,1.394444 0,2.060907 -0.0715,0.298047 -0.30237,0.532908 -0.39562,0.824366 -0.29169,0.911714 -0.14579,2.418884 -0.79122,3.091344"
       id="path74" /><path
       style="font-variation-settings:normal;vector-effect:none;fill:#0089ad;fill-opacity:1;stroke:#0089ad;stroke-width:1.52622;stroke-linecap:butt;stroke-linejoin:miter;stroke-miterlimit:4;stroke-dasharray:none;stroke-dashoffset:0;stroke-opacity:1;-inkscape-stroke:none;stop-color:#000000"
       d="m 83.46758,80.186394 c 1.354366,-0.691871 3.427132,-0.522409 4.945166,-0.206088 0.0075,0.0012 1.540134,0.500365 1.582449,0.412175 0.208136,-0.433689 -1.255457,-2.374221 -1.582449,-2.885257 -0.112142,-0.17518 -0.161799,-1.030453 -0.395608,-1.030453 -0.197805,0 0,0.412175 0,0.618278 0,0.412175 0,0.82435 0,1.236541 0,0.480876 0,0.961752 0,1.442628"
       id="path75" /><path
       style="font-variation-settings:normal;vector-effect:none;fill:#0089ad;fill-opacity:1;stroke:#0089ad;stroke-width:1.52622;stroke-linecap:butt;stroke-linejoin:miter;stroke-miterlimit:4;stroke-dasharray:none;stroke-dashoffset:0;stroke-opacity:1;-inkscape-stroke:none;stop-color:#000000"
       d="M 93.95134,88.430005 83.269775,78.33159"
       id="path76" /><path
       style="font-variation-settings:normal;vector-effect:none;fill:#0089ad;fill-opacity:1;stroke:#0089ad;stroke-width:1.52622;stroke-linecap:butt;stroke-linejoin:miter;stroke-miterlimit:4;stroke-dasharray:none;stroke-dashoffset:0;stroke-opacity:1;-inkscape-stroke:none;stop-color:#000000"
       d="M 106.01756,84.92647 81.291703,74.415864"
       id="path77" /><path
       style="font-variation-settings:normal;vector-effect:none;fill:#0089ad;fill-opacity:1;stroke:#0089ad;stroke-width:1.52622;stroke-linecap:butt;stroke-linejoin:miter;stroke-miterlimit:4;stroke-dasharray:none;stroke-dashoffset:0;stroke-opacity:1;-inkscape-stroke:none;stop-color:#000000"
       d="m 83.071972,79.568131 c -0.791232,1.099139 -0.791232,1.099139 0,0 z"
       id="path78" /><path
       style="font-variation-settings:normal;vector-effect:none;fill:#0089ad;fill-opacity:1;stroke:#0089ad;stroke-width:1.52622;stroke-linecap:butt;stroke-linejoin:miter;stroke-miterlimit:4;stroke-dasharray:none;stroke-dashoffset:0;stroke-opacity:1;-inkscape-stroke:none;stop-color:#000000"
       d="m 104.03948,76.064596 0.19781,-0.206088"
       id="path79" /><path
       style="font-variation-settings:normal;vector-effect:none;fill:#0089ad;fill-opacity:1;stroke:#0089ad;stroke-width:1.52622;stroke-linecap:butt;stroke-linejoin:miter;stroke-miterlimit:4;stroke-dasharray:none;stroke-dashoffset:0;stroke-opacity:1;-inkscape-stroke:none;stop-color:#000000"
       d="m 104.43509,81.629022 9.69254,-4.740076"
       id="path80" /><path
       style="font-variation-settings:normal;vector-effect:none;fill:#0089ad;fill-opacity:1;stroke:#0089ad;stroke-width:1.52622;stroke-linecap:butt;stroke-linejoin:miter;stroke-miterlimit:4;stroke-dasharray:none;stroke-dashoffset:0;stroke-opacity:1;-inkscape-stroke:none;stop-color:#000000"
       d="m 78.918022,79.15594 c 2.033336,-0.526334 4.026271,1.236541 5.934202,1.236541"
       id="path81" /><path
       style="font-variation-settings:normal;vector-effect:none;fill:#0089ad;fill-opacity:1;stroke:#0089ad;stroke-width:1.52622;stroke-linecap:butt;stroke-linejoin:miter;stroke-miterlimit:4;stroke-dasharray:none;stroke-dashoffset:0;stroke-opacity:1;-inkscape-stroke:none;stop-color:#000000"
       d="m 109.57808,76.064596 c -0.31055,2.049285 0.43337,4.415935 -0.19781,6.388792 -0.11797,0.368633 0.24509,1.393369 0,1.648716 -0.14429,0.150332 -0.74658,0 -0.98903,0"
       id="path82" /><path
       style="font-variation-settings:normal;vector-effect:none;fill:#0089ad;fill-opacity:1;stroke:#0089ad;stroke-width:1.52622;stroke-linecap:butt;stroke-linejoin:miter;stroke-miterlimit:4;stroke-dasharray:none;stroke-dashoffset:0;stroke-opacity:1;-inkscape-stroke:none;stop-color:#000000"
       d="m 103.84168,72.148885 c -0.0172,2.550461 0.59341,4.889661 0.59341,7.419246 0,0.480876 0,0.961752 0,1.442628 0,0.0687 -0.0294,0.267529 0,0.206088 0.57954,-1.207612 0.074,-2.625704 0.19782,-3.91571 0.0776,-0.80804 0.36146,-1.335901 0.59341,-2.060907 0.0504,-0.157483 0,-0.451059 0,-0.618263 0,-0.0687 0.0659,-0.206103 0,-0.206103 -0.0659,0 0.0396,0.151111 0,0.206103 -0.44075,0.612265 -0.93645,1.026092 -1.38464,1.648716 -0.0885,0.122914 -0.0936,0.303562 -0.19781,0.412175 -0.0466,0.04861 -0.15118,-0.0486 -0.1978,0 -0.0466,0.04861 0.0295,0.144569 0,0.206088 -0.19333,0.402859 -1.36018,1.055955 -1.18684,1.236541 0.27141,0.282796 3.43867,-0.706967 3.95613,-1.030438 0.0565,-0.03536 -0.0466,-0.157514 0,-0.206103 0.0217,-0.02259 0.85388,-0.346901 0.59341,-0.618263 -0.27974,-0.291457 -0.79364,0.04549 -1.18684,0 -0.58025,-0.06714 -1.33959,-0.618262 -1.78025,-0.618262"
       id="path83" /><path
       style="font-variation-settings:normal;vector-effect:none;fill:#0089ad;fill-opacity:1;stroke:#0089ad;stroke-width:1.52622;stroke-linecap:butt;stroke-linejoin:miter;stroke-miterlimit:4;stroke-dasharray:none;stroke-dashoffset:0;stroke-opacity:1;-inkscape-stroke:none;stop-color:#000000"
       d="m 92.566695,77.507224 c 1.120901,-0.274788 2.25266,-0.505319 3.3627,-0.824366 0.804,-0.231075 1.59277,-0.519246 2.37368,-0.82435 2.325705,-0.908661 3.514325,-0.889047 0.39563,-0.618278 -0.32855,0.02851 -0.65937,0 -0.98904,0 -3.360488,0 0.43905,-0.07898 -2.57148,0.206087 -0.69901,0.06621 -3.595753,-0.225841 -2.57149,2.060907 0.349361,0.780014 1.396802,0.950053 2.17586,1.236541 2.26876,0.834274 4.27644,-3.267194 4.94517,-4.533988 0.458175,-0.867908 0.395625,-1.069649 0.395625,-1.854804 0,-0.206088 0.0885,-0.802603 0,-0.618278 -0.09331,0.19431 -0.0905,0.431991 -0.197805,0.618278 -0.8049,1.397669 0.006,-0.976318 -0.79123,1.236541 -0.56538,1.570792 0.34725,0.08397 -0.79124,2.060907 -0.65866,1.143755 -1.3489,2.279192 -2.17586,3.297432 -0.13472,0.165848 -0.40694,0.108893 -0.59343,0.206087 -0.22643,0.117929 -0.11722,0.302768 -0.3956,0.206103 -0.919841,-0.319452 -2.326421,-6.11997 -1.186845,-6.594895 1.126465,-0.469457 2.749385,0.590627 3.362705,1.442629 0.24066,0.334298 0.14115,0.822885 0.19782,1.23654 0.25718,1.875757 -1.31817,3.653276 -2.967112,4.121814 -0.151153,0.043 -1.47228,0.138181 -1.582449,-0.206088 -0.04172,-0.130391 0.02856,-0.27806 0,-0.41219 -0.104068,-0.488214 -0.861299,-1.321335 -0.395609,-1.442629 0.931366,-0.242588 1.813717,0.728013 2.76929,0.824366 1.8617,0.187705 5.860285,-0.637798 7.516655,-0.824366 1.57874,-0.177828 3.24092,0.110919 4.74736,-0.412175 0.13981,-0.0486 -0.25574,-0.157514 -0.3956,-0.206103 -1.7472,-0.606781 -2.83924,-0.852251 -4.54956,-1.030438 -2.24858,-0.234284 -4.467775,-0.09409 -6.725445,-0.206087 -5.04346,-0.250222 -0.78203,0.0016 -3.164895,-0.412191 -0.130085,-0.02259 -0.496926,0.08802 -0.395624,0 1.81587,-1.576588 2.685049,-1.243801 5.340789,-1.648716 1.44858,-0.220872 2.898375,-0.434733 4.351745,-0.618278 0.723,-0.09129 1.44975,-0.14784 2.17588,-0.206088 0.19723,-0.01573 0.45355,-0.145659 0.59342,0 0.19265,0.200729 -1.39813,2.107736 -1.78026,2.266994 -0.18366,0.07649 -0.40576,-0.06512 -0.59342,0 -0.6502,0.451605 -0.47025,0.404963 -1.18684,0.618279 -0.81098,0.241404 -1.572734,0.133974 -2.373684,0.412175 -0.17564,0.06107 -0.969521,0.432505 -1.186841,0.206087 -0.158929,-0.165568 0.17755,-0.761039 0.197811,-0.824366 0.0372,-0.116526 -0.0794,-0.535494 0,-0.618262 0.26374,-0.274789 0.1978,0.343474 0.1978,-0.206088"
       id="path84" /><path
       style="font-variation-settings:normal;vector-effect:none;fill:#0089ad;fill-opacity:1;stroke:#0089ad;stroke-width:1.52622;stroke-linecap:butt;stroke-linejoin:miter;stroke-miterlimit:4;stroke-dasharray:none;stroke-dashoffset:0;stroke-opacity:1;-inkscape-stroke:none;stop-color:#000000"
       d="m 95.731595,76.476771 c 0.26374,0.480876 0.62312,0.917198 0.79123,1.442628 0.16681,0.52138 0,1.099155 0,1.648732 0,0.206087 0.1398,0.763999 0,0.618263 -0.52127,-0.543097 -0.853179,-1.306006 -0.98904,-2.060907 -0.0979,-0.544359 0.72939,-1.648716 0.19781,-1.648716 -1.778236,0 -0.77951,1.43043 -1.384646,2.060907 -0.04665,0.0486 -0.151183,-0.0486 -0.197804,0 -0.104218,0.108581 -0.0936,0.303562 -0.197805,0.412175 -0.409275,0.426413 0.016,-0.651601 -0.395623,0.206087 -0.136365,0.284276 0.239566,0.184356 -0.197804,0.412191 -0.249315,0.129924 -0.791218,0.05904 -0.791218,0.412175"
       id="path85" /><rect
       style="fill:#0089ad;fill-opacity:1;stroke:#0089ad;stroke-width:0;stroke-dasharray:none;stroke-opacity:1"
       id="rect85"
       width="11.868405"
       height="49.255543"
       x="132.12802"
       y="105.53548" /><path
       style="fill:#f9ad0e;stroke:#f9ad0e;stroke-width:1.52622;stroke-opacity:1"
       d="m 136.13831,150.99524 c -2.03566,-0.33653 -2.36056,-0.46859 -2.50246,-1.01714 -0.17613,-0.6809 -0.13367,-41.28683 0.0441,-42.16287 0.22273,-1.09765 1.07847,-1.35301 4.47924,-1.33662 3.11203,0.0156 4.24876,0.30627 4.46873,1.14505 0.18541,0.70704 0.2109,42.25603 0.0262,42.53515 -0.21669,0.32726 -0.75295,0.50197 -2.57501,0.83895 -1.83323,0.33905 -1.87474,0.33902 -3.94067,-0.003 z M 95.013865,111.49006 c -4.825262,-1.89879 -11.187789,-4.35175 -13.337648,-5.14207 -2.841884,-1.04473 -2.666747,-0.91473 -2.937997,-2.18093 -0.354907,-1.65677 -0.186589,-7.850521 0.225032,-8.280511 0.269366,-0.2814 0.571912,-0.20899 2.72053,0.65116 1.329606,0.53227 3.508727,1.3946 4.842489,1.91628 1.333762,0.52169 2.697848,1.07658 3.031285,1.23309 0.333436,0.15652 0.970017,0.418891 1.414594,0.583061 0.444592,0.16415 2.235058,0.88395 3.978815,1.59953 1.74375,0.71559 3.41571,1.30107 3.71546,1.30107 0.50748,0 3.841655,-1.26371 11.705965,-4.436781 6.11895,-2.46884 8.05317,-3.18008 8.33791,-3.06593 0.23696,0.095 0.27207,0.87639 0.20671,4.600241 -0.0434,2.46719 -0.14743,4.64016 -0.23134,4.82881 -0.1584,0.35599 -0.86067,0.71482 -2.75594,1.40823 -0.61131,0.22365 -3.20305,1.23715 -5.75944,2.25221 -2.55638,1.01506 -5.33001,2.10866 -6.16361,2.43018 -0.83359,0.32154 -2.09968,0.83428 -2.81352,1.13943 -0.71383,0.30515 -1.623215,0.54582 -2.020855,0.53482 -0.39764,-0.0109 -2.26894,-0.62834 -4.15844,-1.37189 z m 28.704145,-5.86591 c -0.46219,-0.37884 -2.62512,-1.06688 -0.58743,-1.95175 -1.92115,2.81906 -0.13398,-2.07993 0.46658,-2.71835 2.96764,-3.154691 1.6918,-5.215131 1.68595,-8.936386 -10e-4,-1.394507 -0.0848,-2.053897 -0.28286,-2.258162 -0.23695,-0.244364 -0.85205,-0.06153 -4.01837,1.194697 -2.05622,0.815767 -4.19329,1.656926 -4.74902,1.869261 -0.55573,0.212319 -2.46544,0.973559 -4.2438,1.691639 -1.77835,0.71808 -3.68806,1.47841 -4.24379,1.68959 -0.55574,0.2112 -2.10169,0.83095 -3.43546,1.37725 -5.619125,2.30151 -5.380695,2.25746 -7.493235,1.38428 -0.54691,-0.22604 -1.76735,-0.71365 -2.712093,-1.08356 -0.944748,-0.36991 -2.627108,-1.03542 -3.738589,-1.47894 -1.111466,-0.4435 -2.930236,-1.15355 -4.041702,-1.57788 -1.111481,-0.42433 -2.748372,-1.05543 -3.637541,-1.40242 -2.710647,-1.057842 -6.306337,-2.429759 -10.348024,-3.948239 -3.191139,-1.198904 -3.450831,-1.361403 -3.612257,-2.260296 -0.07461,-0.415073 -0.05592,-1.143833 0.04142,-1.619444 l 0.176989,-0.864761 2.222948,-0.894983 c 1.222606,-0.492217 3.496077,-1.385237 5.052134,-1.984478 1.556058,-0.599226 3.784059,-1.471854 4.951103,-1.939146 1.167044,-0.467291 2.576584,-1.024253 3.132333,-1.237693 0.555733,-0.213425 4.102334,-1.593927 7.881339,-3.067775 6.295331,-2.455229 6.93015,-2.661924 7.578191,-2.467411 0.718824,0.215762 1.589824,0.555014 5.557364,2.164613 2.42446,0.983593 3.3702,1.358302 7.17405,2.842478 2.51805,0.982487 6.40659,2.531626 7.17404,2.85801 1.33303,0.566947 6.23808,2.476899 7.94654,3.094258 1.57453,0.568972 1.85461,0.917307 1.85461,2.306532 0,1.262137 -0.30602,1.743511 -1.5475,2.43412 -0.5315,0.295664 -0.62996,0.491376 -0.74333,1.477774 -0.35532,3.091411 0.30542,7.773111 1.29265,9.159281 0.45866,0.644001 0.99818,3.057571 0.99818,4.465411 v 1.54565 l -0.73197,0.3195 c -0.47296,0.20643 -1.38474,0.31913 -2.5766,0.31846 -1.63638,-9.4e-4 -1.91215,-0.0575 -2.4429,-0.50113 z"
       id="path14"
       sodipodi:nodetypes="csscscsccssssssssssssccsssscsccscsssssssssssscscssssssssssssssscsscc" /><rect
       style="fill:#0089ad;fill-opacity:1;stroke:#0089ad;stroke-width:0;stroke-dasharray:none;stroke-opacity:1"
       id="rect86"
       width="10.483758"
       height="39.363216"
       x="118.08376"
       y="115.22172" /><rect
       style="fill:#0089ad;fill-opacity:1;stroke:#0089ad;stroke-width:0;stroke-dasharray:none;stroke-opacity:1"
       id="rect87"
       width="9.7209997"
       height="28.344048"
       x="105.51547"
       y="124.06882" /><path
       style="font-variation-settings:normal;vector-effect:none;fill:#20c9ef;fill-opacity:1;stroke:#20c9ef;stroke-width:1.09184;stroke-linecap:butt;stroke-linejoin:miter;stroke-miterlimit:4;stroke-dasharray:none;stroke-dashoffset:0;stroke-opacity:1;-inkscape-stroke:none;stop-color:#000000"
       d="m 106.1141,124.51938 c 2.96551,-0.53862 5.96028,-0.54655 8.89653,-0.0446 l 0.0834,26.82355 c -2.98674,0.4579 -5.97349,0.43309 -8.96024,0 z"
       id="path89"
       sodipodi:nodetypes="ccccc" /><path
       style="font-variation-settings:normal;vector-effect:none;fill:#ea421f;fill-opacity:1;stroke:#ea421f;stroke-width:1.21012;stroke-linecap:butt;stroke-linejoin:miter;stroke-miterlimit:4;stroke-dasharray:none;stroke-dashoffset:0;stroke-opacity:1;-inkscape-stroke:none;stop-color:#000000"
       d="m 119.70673,117.96786 c 2.92722,-0.67028 5.88332,-0.68016 8.78165,-0.0555 l 0.0824,33.38049 c -2.94818,0.56983 -5.89636,0.53896 -8.84454,0 z"
       id="path89-3"
       sodipodi:nodetypes="ccccc" /><path
       style="font-variation-settings:normal;vector-effect:none;fill:#f9ad0e;fill-opacity:1;stroke:#f9ad0e;stroke-width:1.44359;stroke-linecap:butt;stroke-linejoin:miter;stroke-miterlimit:4;stroke-dasharray:none;stroke-dashoffset:0;stroke-opacity:1;-inkscape-stroke:none;stop-color:#000000"
       d="m 133.3555,106.59863 c 3.12877,-0.89241 6.28842,-0.90556 9.3863,-0.0738 l 0.0881,44.44334 c -3.15117,0.75866 -6.30234,0.71756 -9.45351,0 z"
       id="path89-3-1"
       sodipodi:nodetypes="ccccc" /><text
       xml:space="preserve"
       style="font-size:26.4583px;font-variation-settings:normal;vector-effect:none;fill:#1a4f66;fill-opacity:1;stroke:#1a4f66;stroke-width:1.52622;stroke-linecap:butt;stroke-linejoin:miter;stroke-miterlimit:4;stroke-dasharray:none;stroke-dashoffset:0;stroke-opacity:1;-inkscape-stroke:none;stop-color:#000000"
       x="29.161461"
       y="190.23853"
       id="text89"
       transform="scale(0.97969735,1.0207234)"><tspan
         sodipodi:role="line"
         id="tspan89"
         style="font-size:26.4583px;stroke-width:1.52622"
         x="29.161461"
         y="190.23853">GESCHOOL</tspan></text><path
       style="fill:#0089ad;fill-opacity:1;stroke:#0089ad;stroke-width:0;stroke-dasharray:none;stroke-opacity:1"
       d="M 47.169731,80.027176 C 47.80939,72.14426 54.652869,66.989927 61.411855,66.755575 l -11.038232,6.442866 z"
       id="path7"
       sodipodi:nodetypes="cccc" /><path
       style="fill:#0089ad;fill-opacity:1;stroke:#0089ad;stroke-width:0;stroke-dasharray:none;stroke-opacity:1"
       d="m 137.19296,66.705252 c 6.9782,0.188909 12.70491,7.142843 12.80086,12.692773 l -6.14679,-9.513982 z"
       id="path7-8"
       sodipodi:nodetypes="cccc" /></g></svg>
